<?xml version="1.0" encoding="utf-8" standalone="no"?>
<!DOCTYPE svg PUBLIC "-//W3C//DTD SVG 1.1//EN"
  "http://www.w3.org/Graphics/SVG/1.1/DTD/svg11.dtd">
<svg xmlns:xlink="http://www.w3.org/1999/xlink" width="1152pt" height="360pt" viewBox="0 0 1152 360" xmlns="http://www.w3.org/2000/svg" version="1.1">
 <metadata>
  <rdf:RDF xmlns:dc="http://purl.org/dc/elements/1.1/" xmlns:cc="http://creativecommons.org/ns#" xmlns:rdf="http://www.w3.org/1999/02/22-rdf-syntax-ns#">
   <cc:Work>
    <dc:type rdf:resource="http://purl.org/dc/dcmitype/StillImage"/>
    <dc:date>2022-07-12T15:41:30.521551</dc:date>
    <dc:format>image/svg+xml</dc:format>
    <dc:creator>
     <cc:Agent>
      <dc:title>Matplotlib v3.5.2, https://matplotlib.org/</dc:title>
     </cc:Agent>
    </dc:creator>
   </cc:Work>
  </rdf:RDF>
 </metadata>
 <defs>
  <style type="text/css">*{stroke-linejoin: round; stroke-linecap: butt}</style>
 </defs>
 <g id="figure_1">
  <g id="patch_1">
   <path d="M 0 360 
L 1152 360 
L 1152 0 
L 0 0 
L 0 360 
z
" style="fill: none"/>
  </g>
  <g id="axes_1">
   <g id="patch_2">
    <path d="M 40.54024 320.192558 
L 401.113354 320.192558 
L 401.113354 27.23649 
L 40.54024 27.23649 
z
" style="fill: #ffffff"/>
   </g>
   <g id="patch_3">
    <path d="M 56.929927 320.192558 
L 70.041677 320.192558 
L 70.041677 41.186779 
L 56.929927 41.186779 
z
" clip-path="url(#p0e4a2e4596)" style="fill: #520b92"/>
   </g>
   <g id="patch_4">
    <path d="M 70.041677 320.192558 
L 83.153426 320.192558 
L 83.153426 187.586168 
L 70.041677 187.586168 
z
" clip-path="url(#p0e4a2e4596)" style="fill: #520b92"/>
   </g>
   <g id="patch_5">
    <path d="M 83.153426 320.192558 
L 96.265176 320.192558 
L 96.265176 189.885002 
L 83.153426 189.885002 
z
" clip-path="url(#p0e4a2e4596)" style="fill: #520b92"/>
   </g>
   <g id="patch_6">
    <path d="M 96.265176 320.192558 
L 109.376925 320.192558 
L 109.376925 210.997972 
L 96.265176 210.997972 
z
" clip-path="url(#p0e4a2e4596)" style="fill: #520b92"/>
   </g>
   <g id="patch_7">
    <path d="M 109.376925 320.192558 
L 122.488675 320.192558 
L 122.488675 235.196218 
L 109.376925 235.196218 
z
" clip-path="url(#p0e4a2e4596)" style="fill: #520b92"/>
   </g>
   <g id="patch_8">
    <path d="M 122.488675 320.192558 
L 135.600425 320.192558 
L 135.600425 252.860937 
L 122.488675 252.860937 
z
" clip-path="url(#p0e4a2e4596)" style="fill: #520b92"/>
   </g>
   <g id="patch_9">
    <path d="M 135.600425 320.192558 
L 148.712174 320.192558 
L 148.712174 271.070118 
L 135.600425 271.070118 
z
" clip-path="url(#p0e4a2e4596)" style="fill: #520b92"/>
   </g>
   <g id="patch_10">
    <path d="M 148.712174 320.192558 
L 161.823924 320.192558 
L 161.823924 274.578863 
L 148.712174 274.578863 
z
" clip-path="url(#p0e4a2e4596)" style="fill: #520b92"/>
   </g>
   <g id="patch_11">
    <path d="M 161.823924 320.192558 
L 174.935674 320.192558 
L 174.935674 288.190377 
L 161.823924 288.190377 
z
" clip-path="url(#p0e4a2e4596)" style="fill: #520b92"/>
   </g>
   <g id="patch_12">
    <path d="M 174.935674 320.192558 
L 188.047423 320.192558 
L 188.047423 301.196934 
L 174.935674 301.196934 
z
" clip-path="url(#p0e4a2e4596)" style="fill: #520b92"/>
   </g>
   <g id="patch_13">
    <path d="M 188.047423 320.192558 
L 201.159173 320.192558 
L 201.159173 307.669965 
L 188.047423 307.669965 
z
" clip-path="url(#p0e4a2e4596)" style="fill: #520b92"/>
   </g>
   <g id="patch_14">
    <path d="M 201.159173 320.192558 
L 214.270922 320.192558 
L 214.270922 306.944018 
L 201.159173 306.944018 
z
" clip-path="url(#p0e4a2e4596)" style="fill: #520b92"/>
   </g>
   <g id="patch_15">
    <path d="M 214.270922 320.192558 
L 227.382672 320.192558 
L 227.382672 306.762531 
L 214.270922 306.762531 
z
" clip-path="url(#p0e4a2e4596)" style="fill: #520b92"/>
   </g>
   <g id="patch_16">
    <path d="M 227.382672 320.192558 
L 240.494422 320.192558 
L 240.494422 307.911948 
L 227.382672 307.911948 
z
" clip-path="url(#p0e4a2e4596)" style="fill: #520b92"/>
   </g>
   <g id="patch_17">
    <path d="M 240.494422 320.192558 
L 253.606171 320.192558 
L 253.606171 310.331772 
L 240.494422 310.331772 
z
" clip-path="url(#p0e4a2e4596)" style="fill: #520b92"/>
   </g>
   <g id="patch_18">
    <path d="M 253.606171 320.192558 
L 266.717921 320.192558 
L 266.717921 316.199847 
L 253.606171 316.199847 
z
" clip-path="url(#p0e4a2e4596)" style="fill: #520b92"/>
   </g>
   <g id="patch_19">
    <path d="M 266.717921 320.192558 
L 279.829671 320.192558 
L 279.829671 318.982645 
L 266.717921 318.982645 
z
" clip-path="url(#p0e4a2e4596)" style="fill: #520b92"/>
   </g>
   <g id="patch_20">
    <path d="M 279.829671 320.192558 
L 292.94142 320.192558 
L 292.94142 320.011071 
L 279.829671 320.011071 
z
" clip-path="url(#p0e4a2e4596)" style="fill: #520b92"/>
   </g>
   <g id="patch_21">
    <path d="M 292.94142 320.192558 
L 306.05317 320.192558 
L 306.05317 320.192558 
L 292.94142 320.192558 
z
" clip-path="url(#p0e4a2e4596)" style="fill: #520b92"/>
   </g>
   <g id="patch_22">
    <path d="M 306.05317 320.192558 
L 319.164919 320.192558 
L 319.164919 320.132062 
L 306.05317 320.132062 
z
" clip-path="url(#p0e4a2e4596)" style="fill: #520b92"/>
   </g>
   <g id="patch_23">
    <path d="M 319.164919 320.192558 
L 332.276669 320.192558 
L 332.276669 320.071566 
L 319.164919 320.071566 
z
" clip-path="url(#p0e4a2e4596)" style="fill: #520b92"/>
   </g>
   <g id="patch_24">
    <path d="M 332.276669 320.192558 
L 345.388419 320.192558 
L 345.388419 320.132062 
L 332.276669 320.132062 
z
" clip-path="url(#p0e4a2e4596)" style="fill: #520b92"/>
   </g>
   <g id="patch_25">
    <path d="M 345.388419 320.192558 
L 358.500168 320.192558 
L 358.500168 320.132062 
L 345.388419 320.132062 
z
" clip-path="url(#p0e4a2e4596)" style="fill: #520b92"/>
   </g>
   <g id="patch_26">
    <path d="M 358.500168 320.192558 
L 371.611918 320.192558 
L 371.611918 320.132062 
L 358.500168 320.132062 
z
" clip-path="url(#p0e4a2e4596)" style="fill: #520b92"/>
   </g>
   <g id="patch_27">
    <path d="M 371.611918 320.192558 
L 384.723667 320.192558 
L 384.723667 320.132062 
L 371.611918 320.132062 
z
" clip-path="url(#p0e4a2e4596)" style="fill: #520b92"/>
   </g>
   <g id="matplotlib.axis_1">
    <g id="xtick_1">
     <g id="line2d_1">
      <defs>
       <path id="mff030a84af" d="M 0 0 
L 0 3.5 
" style="stroke: #000000; stroke-width: 0.8"/>
      </defs>
      <g>
       <use xlink:href="#mff030a84af" x="56.929927" y="320.192558" style="stroke: #000000; stroke-width: 0.8"/>
      </g>
     </g>
     <g id="text_1">
      <!-- 0 -->
      <g transform="translate(56.571954 339.038806)rotate(-45)scale(0.12 -0.12)">
       <defs>
        <path id="DejaVuSans-30" d="M 2034 4250 
Q 1547 4250 1301 3770 
Q 1056 3291 1056 2328 
Q 1056 1369 1301 889 
Q 1547 409 2034 409 
Q 2525 409 2770 889 
Q 3016 1369 3016 2328 
Q 3016 3291 2770 3770 
Q 2525 4250 2034 4250 
z
M 2034 4750 
Q 2819 4750 3233 4129 
Q 3647 3509 3647 2328 
Q 3647 1150 3233 529 
Q 2819 -91 2034 -91 
Q 1250 -91 836 529 
Q 422 1150 422 2328 
Q 422 3509 836 4129 
Q 1250 4750 2034 4750 
z
" transform="scale(0.015625)"/>
       </defs>
       <use xlink:href="#DejaVuSans-30"/>
      </g>
     </g>
    </g>
    <g id="xtick_2">
     <g id="line2d_2">
      <g>
       <use xlink:href="#mff030a84af" x="98.633965" y="320.192558" style="stroke: #000000; stroke-width: 0.8"/>
      </g>
     </g>
     <g id="text_2">
      <!-- 1000 -->
      <g transform="translate(90.177852 355.235087)rotate(-45)scale(0.12 -0.12)">
       <defs>
        <path id="DejaVuSans-31" d="M 794 531 
L 1825 531 
L 1825 4091 
L 703 3866 
L 703 4441 
L 1819 4666 
L 2450 4666 
L 2450 531 
L 3481 531 
L 3481 0 
L 794 0 
L 794 531 
z
" transform="scale(0.015625)"/>
       </defs>
       <use xlink:href="#DejaVuSans-31"/>
       <use xlink:href="#DejaVuSans-30" x="63.623047"/>
       <use xlink:href="#DejaVuSans-30" x="127.246094"/>
       <use xlink:href="#DejaVuSans-30" x="190.869141"/>
      </g>
     </g>
    </g>
    <g id="xtick_3">
     <g id="line2d_3">
      <g>
       <use xlink:href="#mff030a84af" x="140.338003" y="320.192558" style="stroke: #000000; stroke-width: 0.8"/>
      </g>
     </g>
     <g id="text_3">
      <!-- 2000 -->
      <g transform="translate(131.88189 355.235087)rotate(-45)scale(0.12 -0.12)">
       <defs>
        <path id="DejaVuSans-32" d="M 1228 531 
L 3431 531 
L 3431 0 
L 469 0 
L 469 531 
Q 828 903 1448 1529 
Q 2069 2156 2228 2338 
Q 2531 2678 2651 2914 
Q 2772 3150 2772 3378 
Q 2772 3750 2511 3984 
Q 2250 4219 1831 4219 
Q 1534 4219 1204 4116 
Q 875 4013 500 3803 
L 500 4441 
Q 881 4594 1212 4672 
Q 1544 4750 1819 4750 
Q 2544 4750 2975 4387 
Q 3406 4025 3406 3419 
Q 3406 3131 3298 2873 
Q 3191 2616 2906 2266 
Q 2828 2175 2409 1742 
Q 1991 1309 1228 531 
z
" transform="scale(0.015625)"/>
       </defs>
       <use xlink:href="#DejaVuSans-32"/>
       <use xlink:href="#DejaVuSans-30" x="63.623047"/>
       <use xlink:href="#DejaVuSans-30" x="127.246094"/>
       <use xlink:href="#DejaVuSans-30" x="190.869141"/>
      </g>
     </g>
    </g>
    <g id="xtick_4">
     <g id="line2d_4">
      <g>
       <use xlink:href="#mff030a84af" x="182.042042" y="320.192558" style="stroke: #000000; stroke-width: 0.8"/>
      </g>
     </g>
     <g id="text_4">
      <!-- 3000 -->
      <g transform="translate(173.585928 355.235087)rotate(-45)scale(0.12 -0.12)">
       <defs>
        <path id="DejaVuSans-33" d="M 2597 2516 
Q 3050 2419 3304 2112 
Q 3559 1806 3559 1356 
Q 3559 666 3084 287 
Q 2609 -91 1734 -91 
Q 1441 -91 1130 -33 
Q 819 25 488 141 
L 488 750 
Q 750 597 1062 519 
Q 1375 441 1716 441 
Q 2309 441 2620 675 
Q 2931 909 2931 1356 
Q 2931 1769 2642 2001 
Q 2353 2234 1838 2234 
L 1294 2234 
L 1294 2753 
L 1863 2753 
Q 2328 2753 2575 2939 
Q 2822 3125 2822 3475 
Q 2822 3834 2567 4026 
Q 2313 4219 1838 4219 
Q 1578 4219 1281 4162 
Q 984 4106 628 3988 
L 628 4550 
Q 988 4650 1302 4700 
Q 1616 4750 1894 4750 
Q 2613 4750 3031 4423 
Q 3450 4097 3450 3541 
Q 3450 3153 3228 2886 
Q 3006 2619 2597 2516 
z
" transform="scale(0.015625)"/>
       </defs>
       <use xlink:href="#DejaVuSans-33"/>
       <use xlink:href="#DejaVuSans-30" x="63.623047"/>
       <use xlink:href="#DejaVuSans-30" x="127.246094"/>
       <use xlink:href="#DejaVuSans-30" x="190.869141"/>
      </g>
     </g>
    </g>
    <g id="xtick_5">
     <g id="line2d_5">
      <g>
       <use xlink:href="#mff030a84af" x="223.74608" y="320.192558" style="stroke: #000000; stroke-width: 0.8"/>
      </g>
     </g>
     <g id="text_5">
      <!-- 4000 -->
      <g transform="translate(215.289967 355.235087)rotate(-45)scale(0.12 -0.12)">
       <defs>
        <path id="DejaVuSans-34" d="M 2419 4116 
L 825 1625 
L 2419 1625 
L 2419 4116 
z
M 2253 4666 
L 3047 4666 
L 3047 1625 
L 3713 1625 
L 3713 1100 
L 3047 1100 
L 3047 0 
L 2419 0 
L 2419 1100 
L 313 1100 
L 313 1709 
L 2253 4666 
z
" transform="scale(0.015625)"/>
       </defs>
       <use xlink:href="#DejaVuSans-34"/>
       <use xlink:href="#DejaVuSans-30" x="63.623047"/>
       <use xlink:href="#DejaVuSans-30" x="127.246094"/>
       <use xlink:href="#DejaVuSans-30" x="190.869141"/>
      </g>
     </g>
    </g>
    <g id="xtick_6">
     <g id="line2d_6">
      <g>
       <use xlink:href="#mff030a84af" x="265.450118" y="320.192558" style="stroke: #000000; stroke-width: 0.8"/>
      </g>
     </g>
     <g id="text_6">
      <!-- 5000 -->
      <g transform="translate(256.994005 355.235087)rotate(-45)scale(0.12 -0.12)">
       <defs>
        <path id="DejaVuSans-35" d="M 691 4666 
L 3169 4666 
L 3169 4134 
L 1269 4134 
L 1269 2991 
Q 1406 3038 1543 3061 
Q 1681 3084 1819 3084 
Q 2600 3084 3056 2656 
Q 3513 2228 3513 1497 
Q 3513 744 3044 326 
Q 2575 -91 1722 -91 
Q 1428 -91 1123 -41 
Q 819 9 494 109 
L 494 744 
Q 775 591 1075 516 
Q 1375 441 1709 441 
Q 2250 441 2565 725 
Q 2881 1009 2881 1497 
Q 2881 1984 2565 2268 
Q 2250 2553 1709 2553 
Q 1456 2553 1204 2497 
Q 953 2441 691 2322 
L 691 4666 
z
" transform="scale(0.015625)"/>
       </defs>
       <use xlink:href="#DejaVuSans-35"/>
       <use xlink:href="#DejaVuSans-30" x="63.623047"/>
       <use xlink:href="#DejaVuSans-30" x="127.246094"/>
       <use xlink:href="#DejaVuSans-30" x="190.869141"/>
      </g>
     </g>
    </g>
    <g id="xtick_7">
     <g id="line2d_7">
      <g>
       <use xlink:href="#mff030a84af" x="307.154156" y="320.192558" style="stroke: #000000; stroke-width: 0.8"/>
      </g>
     </g>
     <g id="text_7">
      <!-- 6000 -->
      <g transform="translate(298.698043 355.235087)rotate(-45)scale(0.12 -0.12)">
       <defs>
        <path id="DejaVuSans-36" d="M 2113 2584 
Q 1688 2584 1439 2293 
Q 1191 2003 1191 1497 
Q 1191 994 1439 701 
Q 1688 409 2113 409 
Q 2538 409 2786 701 
Q 3034 994 3034 1497 
Q 3034 2003 2786 2293 
Q 2538 2584 2113 2584 
z
M 3366 4563 
L 3366 3988 
Q 3128 4100 2886 4159 
Q 2644 4219 2406 4219 
Q 1781 4219 1451 3797 
Q 1122 3375 1075 2522 
Q 1259 2794 1537 2939 
Q 1816 3084 2150 3084 
Q 2853 3084 3261 2657 
Q 3669 2231 3669 1497 
Q 3669 778 3244 343 
Q 2819 -91 2113 -91 
Q 1303 -91 875 529 
Q 447 1150 447 2328 
Q 447 3434 972 4092 
Q 1497 4750 2381 4750 
Q 2619 4750 2861 4703 
Q 3103 4656 3366 4563 
z
" transform="scale(0.015625)"/>
       </defs>
       <use xlink:href="#DejaVuSans-36"/>
       <use xlink:href="#DejaVuSans-30" x="63.623047"/>
       <use xlink:href="#DejaVuSans-30" x="127.246094"/>
       <use xlink:href="#DejaVuSans-30" x="190.869141"/>
      </g>
     </g>
    </g>
    <g id="xtick_8">
     <g id="line2d_8">
      <g>
       <use xlink:href="#mff030a84af" x="348.858195" y="320.192558" style="stroke: #000000; stroke-width: 0.8"/>
      </g>
     </g>
     <g id="text_8">
      <!-- 7000 -->
      <g transform="translate(340.402081 355.235087)rotate(-45)scale(0.12 -0.12)">
       <defs>
        <path id="DejaVuSans-37" d="M 525 4666 
L 3525 4666 
L 3525 4397 
L 1831 0 
L 1172 0 
L 2766 4134 
L 525 4134 
L 525 4666 
z
" transform="scale(0.015625)"/>
       </defs>
       <use xlink:href="#DejaVuSans-37"/>
       <use xlink:href="#DejaVuSans-30" x="63.623047"/>
       <use xlink:href="#DejaVuSans-30" x="127.246094"/>
       <use xlink:href="#DejaVuSans-30" x="190.869141"/>
      </g>
     </g>
    </g>
    <g id="xtick_9">
     <g id="line2d_9">
      <g>
       <use xlink:href="#mff030a84af" x="390.562233" y="320.192558" style="stroke: #000000; stroke-width: 0.8"/>
      </g>
     </g>
     <g id="text_9">
      <!-- 8000 -->
      <g transform="translate(382.10612 355.235087)rotate(-45)scale(0.12 -0.12)">
       <defs>
        <path id="DejaVuSans-38" d="M 2034 2216 
Q 1584 2216 1326 1975 
Q 1069 1734 1069 1313 
Q 1069 891 1326 650 
Q 1584 409 2034 409 
Q 2484 409 2743 651 
Q 3003 894 3003 1313 
Q 3003 1734 2745 1975 
Q 2488 2216 2034 2216 
z
M 1403 2484 
Q 997 2584 770 2862 
Q 544 3141 544 3541 
Q 544 4100 942 4425 
Q 1341 4750 2034 4750 
Q 2731 4750 3128 4425 
Q 3525 4100 3525 3541 
Q 3525 3141 3298 2862 
Q 3072 2584 2669 2484 
Q 3125 2378 3379 2068 
Q 3634 1759 3634 1313 
Q 3634 634 3220 271 
Q 2806 -91 2034 -91 
Q 1263 -91 848 271 
Q 434 634 434 1313 
Q 434 1759 690 2068 
Q 947 2378 1403 2484 
z
M 1172 3481 
Q 1172 3119 1398 2916 
Q 1625 2713 2034 2713 
Q 2441 2713 2670 2916 
Q 2900 3119 2900 3481 
Q 2900 3844 2670 4047 
Q 2441 4250 2034 4250 
Q 1625 4250 1398 4047 
Q 1172 3844 1172 3481 
z
" transform="scale(0.015625)"/>
       </defs>
       <use xlink:href="#DejaVuSans-38"/>
       <use xlink:href="#DejaVuSans-30" x="63.623047"/>
       <use xlink:href="#DejaVuSans-30" x="127.246094"/>
       <use xlink:href="#DejaVuSans-30" x="190.869141"/>
      </g>
     </g>
    </g>
   </g>
   <g id="matplotlib.axis_2">
    <g id="ytick_1">
     <g id="line2d_10">
      <defs>
       <path id="mc8de25ac08" d="M 0 0 
L -3.5 0 
" style="stroke: #000000; stroke-width: 0.8"/>
      </defs>
      <g>
       <use xlink:href="#mc8de25ac08" x="40.54024" y="320.192558" style="stroke: #000000; stroke-width: 0.8"/>
      </g>
     </g>
     <g id="text_10">
      <!-- 0 -->
      <g transform="translate(25.90524 324.75162)scale(0.12 -0.12)">
       <use xlink:href="#DejaVuSans-30"/>
      </g>
     </g>
    </g>
    <g id="ytick_2">
     <g id="line2d_11">
      <g>
       <use xlink:href="#mc8de25ac08" x="40.54024" y="259.696942" style="stroke: #000000; stroke-width: 0.8"/>
      </g>
     </g>
     <g id="text_11">
      <!-- 1000 -->
      <g transform="translate(3.00024 264.256005)scale(0.12 -0.12)">
       <use xlink:href="#DejaVuSans-31"/>
       <use xlink:href="#DejaVuSans-30" x="63.623047"/>
       <use xlink:href="#DejaVuSans-30" x="127.246094"/>
       <use xlink:href="#DejaVuSans-30" x="190.869141"/>
      </g>
     </g>
    </g>
    <g id="ytick_3">
     <g id="line2d_12">
      <g>
       <use xlink:href="#mc8de25ac08" x="40.54024" y="199.201327" style="stroke: #000000; stroke-width: 0.8"/>
      </g>
     </g>
     <g id="text_12">
      <!-- 2000 -->
      <g transform="translate(3.00024 203.760389)scale(0.12 -0.12)">
       <use xlink:href="#DejaVuSans-32"/>
       <use xlink:href="#DejaVuSans-30" x="63.623047"/>
       <use xlink:href="#DejaVuSans-30" x="127.246094"/>
       <use xlink:href="#DejaVuSans-30" x="190.869141"/>
      </g>
     </g>
    </g>
    <g id="ytick_4">
     <g id="line2d_13">
      <g>
       <use xlink:href="#mc8de25ac08" x="40.54024" y="138.705711" style="stroke: #000000; stroke-width: 0.8"/>
      </g>
     </g>
     <g id="text_13">
      <!-- 3000 -->
      <g transform="translate(3.00024 143.264774)scale(0.12 -0.12)">
       <use xlink:href="#DejaVuSans-33"/>
       <use xlink:href="#DejaVuSans-30" x="63.623047"/>
       <use xlink:href="#DejaVuSans-30" x="127.246094"/>
       <use xlink:href="#DejaVuSans-30" x="190.869141"/>
      </g>
     </g>
    </g>
    <g id="ytick_5">
     <g id="line2d_14">
      <g>
       <use xlink:href="#mc8de25ac08" x="40.54024" y="78.210096" style="stroke: #000000; stroke-width: 0.8"/>
      </g>
     </g>
     <g id="text_14">
      <!-- 4000 -->
      <g transform="translate(3.00024 82.769158)scale(0.12 -0.12)">
       <use xlink:href="#DejaVuSans-34"/>
       <use xlink:href="#DejaVuSans-30" x="63.623047"/>
       <use xlink:href="#DejaVuSans-30" x="127.246094"/>
       <use xlink:href="#DejaVuSans-30" x="190.869141"/>
      </g>
     </g>
    </g>
   </g>
   <g id="patch_28">
    <path d="M 40.54024 320.192558 
L 40.54024 27.23649 
" style="fill: none; stroke: #000000; stroke-width: 0.8; stroke-linejoin: miter; stroke-linecap: square"/>
   </g>
   <g id="patch_29">
    <path d="M 401.113354 320.192558 
L 401.113354 27.23649 
" style="fill: none; stroke: #000000; stroke-width: 0.8; stroke-linejoin: miter; stroke-linecap: square"/>
   </g>
   <g id="patch_30">
    <path d="M 40.54024 320.192558 
L 401.113354 320.192558 
" style="fill: none; stroke: #000000; stroke-width: 0.8; stroke-linejoin: miter; stroke-linecap: square"/>
   </g>
   <g id="patch_31">
    <path d="M 40.54024 27.23649 
L 401.113354 27.23649 
" style="fill: none; stroke: #000000; stroke-width: 0.8; stroke-linejoin: miter; stroke-linecap: square"/>
   </g>
   <g id="text_15">
    <!-- Data -->
    <g transform="translate(192.174922 21.23649)scale(0.24 -0.24)">
     <defs>
      <path id="DejaVuSans-44" d="M 1259 4147 
L 1259 519 
L 2022 519 
Q 2988 519 3436 956 
Q 3884 1394 3884 2338 
Q 3884 3275 3436 3711 
Q 2988 4147 2022 4147 
L 1259 4147 
z
M 628 4666 
L 1925 4666 
Q 3281 4666 3915 4102 
Q 4550 3538 4550 2338 
Q 4550 1131 3912 565 
Q 3275 0 1925 0 
L 628 0 
L 628 4666 
z
" transform="scale(0.015625)"/>
      <path id="DejaVuSans-61" d="M 2194 1759 
Q 1497 1759 1228 1600 
Q 959 1441 959 1056 
Q 959 750 1161 570 
Q 1363 391 1709 391 
Q 2188 391 2477 730 
Q 2766 1069 2766 1631 
L 2766 1759 
L 2194 1759 
z
M 3341 1997 
L 3341 0 
L 2766 0 
L 2766 531 
Q 2569 213 2275 61 
Q 1981 -91 1556 -91 
Q 1019 -91 701 211 
Q 384 513 384 1019 
Q 384 1609 779 1909 
Q 1175 2209 1959 2209 
L 2766 2209 
L 2766 2266 
Q 2766 2663 2505 2880 
Q 2244 3097 1772 3097 
Q 1472 3097 1187 3025 
Q 903 2953 641 2809 
L 641 3341 
Q 956 3463 1253 3523 
Q 1550 3584 1831 3584 
Q 2591 3584 2966 3190 
Q 3341 2797 3341 1997 
z
" transform="scale(0.015625)"/>
      <path id="DejaVuSans-74" d="M 1172 4494 
L 1172 3500 
L 2356 3500 
L 2356 3053 
L 1172 3053 
L 1172 1153 
Q 1172 725 1289 603 
Q 1406 481 1766 481 
L 2356 481 
L 2356 0 
L 1766 0 
Q 1100 0 847 248 
Q 594 497 594 1153 
L 594 3053 
L 172 3053 
L 172 3500 
L 594 3500 
L 594 4494 
L 1172 4494 
z
" transform="scale(0.015625)"/>
     </defs>
     <use xlink:href="#DejaVuSans-44"/>
     <use xlink:href="#DejaVuSans-61" x="77.001953"/>
     <use xlink:href="#DejaVuSans-74" x="138.28125"/>
     <use xlink:href="#DejaVuSans-61" x="177.490234"/>
    </g>
   </g>
  </g>
  <g id="axes_2">
   <g id="patch_32">
    <path d="M 416.673531 320.192558 
L 777.246646 320.192558 
L 777.246646 27.23649 
L 416.673531 27.23649 
z
" style="fill: #ffffff"/>
   </g>
   <g id="patch_33">
    <path d="M 433.063218 320.192558 
L 446.174968 320.192558 
L 446.174968 105.070149 
L 433.063218 105.070149 
z
" clip-path="url(#pa4c2a9493e)" style="fill: #1f77b4"/>
   </g>
   <g id="patch_34">
    <path d="M 446.174968 320.192558 
L 459.286717 320.192558 
L 459.286717 242.3347 
L 446.174968 242.3347 
z
" clip-path="url(#pa4c2a9493e)" style="fill: #1f77b4"/>
   </g>
   <g id="patch_35">
    <path d="M 459.286717 320.192558 
L 472.398467 320.192558 
L 472.398467 248.505253 
L 459.286717 248.505253 
z
" clip-path="url(#pa4c2a9493e)" style="fill: #1f77b4"/>
   </g>
   <g id="patch_36">
    <path d="M 472.398467 320.192558 
L 485.510217 320.192558 
L 485.510217 250.985573 
L 472.398467 250.985573 
z
" clip-path="url(#pa4c2a9493e)" style="fill: #1f77b4"/>
   </g>
   <g id="patch_37">
    <path d="M 485.510217 320.192558 
L 498.621966 320.192558 
L 498.621966 256.067205 
L 485.510217 256.067205 
z
" clip-path="url(#pa4c2a9493e)" style="fill: #1f77b4"/>
   </g>
   <g id="patch_38">
    <path d="M 498.621966 320.192558 
L 511.733716 320.192558 
L 511.733716 244.331056 
L 498.621966 244.331056 
z
" clip-path="url(#pa4c2a9493e)" style="fill: #1f77b4"/>
   </g>
   <g id="patch_39">
    <path d="M 511.733716 320.192558 
L 524.845465 320.192558 
L 524.845465 259.273473 
L 511.733716 259.273473 
z
" clip-path="url(#pa4c2a9493e)" style="fill: #1f77b4"/>
   </g>
   <g id="patch_40">
    <path d="M 524.845465 320.192558 
L 537.957215 320.192558 
L 537.957215 262.782218 
L 524.845465 262.782218 
z
" clip-path="url(#pa4c2a9493e)" style="fill: #1f77b4"/>
   </g>
   <g id="patch_41">
    <path d="M 537.957215 320.192558 
L 551.068965 320.192558 
L 551.068965 260.059916 
L 537.957215 260.059916 
z
" clip-path="url(#pa4c2a9493e)" style="fill: #1f77b4"/>
   </g>
   <g id="patch_42">
    <path d="M 551.068965 320.192558 
L 564.180714 320.192558 
L 564.180714 261.088341 
L 551.068965 261.088341 
z
" clip-path="url(#pa4c2a9493e)" style="fill: #1f77b4"/>
   </g>
   <g id="patch_43">
    <path d="M 564.180714 320.192558 
L 577.292464 320.192558 
L 577.292464 278.2086 
L 564.180714 278.2086 
z
" clip-path="url(#pa4c2a9493e)" style="fill: #1f77b4"/>
   </g>
   <g id="patch_44">
    <path d="M 577.292464 320.192558 
L 590.404213 320.192558 
L 590.404213 290.973175 
L 577.292464 290.973175 
z
" clip-path="url(#pa4c2a9493e)" style="fill: #1f77b4"/>
   </g>
   <g id="patch_45">
    <path d="M 590.404213 320.192558 
L 603.515963 320.192558 
L 603.515963 298.172153 
L 590.404213 298.172153 
z
" clip-path="url(#pa4c2a9493e)" style="fill: #1f77b4"/>
   </g>
   <g id="patch_46">
    <path d="M 603.515963 320.192558 
L 616.627713 320.192558 
L 616.627713 300.168509 
L 603.515963 300.168509 
z
" clip-path="url(#pa4c2a9493e)" style="fill: #1f77b4"/>
   </g>
   <g id="patch_47">
    <path d="M 616.627713 320.192558 
L 629.739462 320.192558 
L 629.739462 301.378421 
L 616.627713 301.378421 
z
" clip-path="url(#pa4c2a9493e)" style="fill: #1f77b4"/>
   </g>
   <g id="patch_48">
    <path d="M 629.739462 320.192558 
L 642.851212 320.192558 
L 642.851212 311.118215 
L 629.739462 311.118215 
z
" clip-path="url(#pa4c2a9493e)" style="fill: #1f77b4"/>
   </g>
   <g id="patch_49">
    <path d="M 642.851212 320.192558 
L 655.962962 320.192558 
L 655.962962 310.210781 
L 642.851212 310.210781 
z
" clip-path="url(#pa4c2a9493e)" style="fill: #1f77b4"/>
   </g>
   <g id="patch_50">
    <path d="M 655.962962 320.192558 
L 669.074711 320.192558 
L 669.074711 309.242851 
L 655.962962 309.242851 
z
" clip-path="url(#pa4c2a9493e)" style="fill: #1f77b4"/>
   </g>
   <g id="patch_51">
    <path d="M 669.074711 320.192558 
L 682.186461 320.192558 
L 682.186461 308.395913 
L 669.074711 308.395913 
z
" clip-path="url(#pa4c2a9493e)" style="fill: #1f77b4"/>
   </g>
   <g id="patch_52">
    <path d="M 682.186461 320.192558 
L 695.29821 320.192558 
L 695.29821 310.936728 
L 682.186461 310.936728 
z
" clip-path="url(#pa4c2a9493e)" style="fill: #1f77b4"/>
   </g>
   <g id="patch_53">
    <path d="M 695.29821 320.192558 
L 708.40996 320.192558 
L 708.40996 314.626961 
L 695.29821 314.626961 
z
" clip-path="url(#pa4c2a9493e)" style="fill: #1f77b4"/>
   </g>
   <g id="patch_54">
    <path d="M 708.40996 320.192558 
L 721.52171 320.192558 
L 721.52171 314.747952 
L 708.40996 314.747952 
z
" clip-path="url(#pa4c2a9493e)" style="fill: #1f77b4"/>
   </g>
   <g id="patch_55">
    <path d="M 721.52171 320.192558 
L 734.633459 320.192558 
L 734.633459 316.01836 
L 721.52171 316.01836 
z
" clip-path="url(#pa4c2a9493e)" style="fill: #1f77b4"/>
   </g>
   <g id="patch_56">
    <path d="M 734.633459 320.192558 
L 747.745209 320.192558 
L 747.745209 315.776378 
L 734.633459 315.776378 
z
" clip-path="url(#pa4c2a9493e)" style="fill: #1f77b4"/>
   </g>
   <g id="patch_57">
    <path d="M 747.745209 320.192558 
L 760.856959 320.192558 
L 760.856959 318.014715 
L 747.745209 318.014715 
z
" clip-path="url(#pa4c2a9493e)" style="fill: #1f77b4"/>
   </g>
   <g id="matplotlib.axis_3">
    <g id="xtick_10">
     <g id="line2d_15">
      <g>
       <use xlink:href="#mff030a84af" x="430.589361" y="320.192558" style="stroke: #000000; stroke-width: 0.8"/>
      </g>
     </g>
     <g id="text_16">
      <!-- 0 -->
      <g transform="translate(430.231388 339.038806)rotate(-45)scale(0.12 -0.12)">
       <use xlink:href="#DejaVuSans-30"/>
      </g>
     </g>
    </g>
    <g id="xtick_11">
     <g id="line2d_16">
      <g>
       <use xlink:href="#mff030a84af" x="504.235396" y="320.192558" style="stroke: #000000; stroke-width: 0.8"/>
      </g>
     </g>
     <g id="text_17">
      <!-- 1000 -->
      <g transform="translate(495.779283 355.235087)rotate(-45)scale(0.12 -0.12)">
       <use xlink:href="#DejaVuSans-31"/>
       <use xlink:href="#DejaVuSans-30" x="63.623047"/>
       <use xlink:href="#DejaVuSans-30" x="127.246094"/>
       <use xlink:href="#DejaVuSans-30" x="190.869141"/>
      </g>
     </g>
    </g>
    <g id="xtick_12">
     <g id="line2d_17">
      <g>
       <use xlink:href="#mff030a84af" x="577.881431" y="320.192558" style="stroke: #000000; stroke-width: 0.8"/>
      </g>
     </g>
     <g id="text_18">
      <!-- 2000 -->
      <g transform="translate(569.425318 355.235087)rotate(-45)scale(0.12 -0.12)">
       <use xlink:href="#DejaVuSans-32"/>
       <use xlink:href="#DejaVuSans-30" x="63.623047"/>
       <use xlink:href="#DejaVuSans-30" x="127.246094"/>
       <use xlink:href="#DejaVuSans-30" x="190.869141"/>
      </g>
     </g>
    </g>
    <g id="xtick_13">
     <g id="line2d_18">
      <g>
       <use xlink:href="#mff030a84af" x="651.527466" y="320.192558" style="stroke: #000000; stroke-width: 0.8"/>
      </g>
     </g>
     <g id="text_19">
      <!-- 3000 -->
      <g transform="translate(643.071353 355.235087)rotate(-45)scale(0.12 -0.12)">
       <use xlink:href="#DejaVuSans-33"/>
       <use xlink:href="#DejaVuSans-30" x="63.623047"/>
       <use xlink:href="#DejaVuSans-30" x="127.246094"/>
       <use xlink:href="#DejaVuSans-30" x="190.869141"/>
      </g>
     </g>
    </g>
    <g id="xtick_14">
     <g id="line2d_19">
      <g>
       <use xlink:href="#mff030a84af" x="725.173501" y="320.192558" style="stroke: #000000; stroke-width: 0.8"/>
      </g>
     </g>
     <g id="text_20">
      <!-- 4000 -->
      <g transform="translate(716.717388 355.235087)rotate(-45)scale(0.12 -0.12)">
       <use xlink:href="#DejaVuSans-34"/>
       <use xlink:href="#DejaVuSans-30" x="63.623047"/>
       <use xlink:href="#DejaVuSans-30" x="127.246094"/>
       <use xlink:href="#DejaVuSans-30" x="190.869141"/>
      </g>
     </g>
    </g>
   </g>
   <g id="matplotlib.axis_4">
    <g id="ytick_6">
     <g id="line2d_20">
      <g>
       <use xlink:href="#mc8de25ac08" x="416.673531" y="320.192558" style="stroke: #000000; stroke-width: 0.8"/>
      </g>
     </g>
    </g>
    <g id="ytick_7">
     <g id="line2d_21">
      <g>
       <use xlink:href="#mc8de25ac08" x="416.673531" y="259.696942" style="stroke: #000000; stroke-width: 0.8"/>
      </g>
     </g>
    </g>
    <g id="ytick_8">
     <g id="line2d_22">
      <g>
       <use xlink:href="#mc8de25ac08" x="416.673531" y="199.201327" style="stroke: #000000; stroke-width: 0.8"/>
      </g>
     </g>
    </g>
    <g id="ytick_9">
     <g id="line2d_23">
      <g>
       <use xlink:href="#mc8de25ac08" x="416.673531" y="138.705711" style="stroke: #000000; stroke-width: 0.8"/>
      </g>
     </g>
    </g>
    <g id="ytick_10">
     <g id="line2d_24">
      <g>
       <use xlink:href="#mc8de25ac08" x="416.673531" y="78.210096" style="stroke: #000000; stroke-width: 0.8"/>
      </g>
     </g>
    </g>
   </g>
   <g id="patch_58">
    <path d="M 416.673531 320.192558 
L 416.673531 27.23649 
" style="fill: none; stroke: #000000; stroke-width: 0.8; stroke-linejoin: miter; stroke-linecap: square"/>
   </g>
   <g id="patch_59">
    <path d="M 777.246646 320.192558 
L 777.246646 27.23649 
" style="fill: none; stroke: #000000; stroke-width: 0.8; stroke-linejoin: miter; stroke-linecap: square"/>
   </g>
   <g id="patch_60">
    <path d="M 416.673531 320.192558 
L 777.246646 320.192558 
" style="fill: none; stroke: #000000; stroke-width: 0.8; stroke-linejoin: miter; stroke-linecap: square"/>
   </g>
   <g id="patch_61">
    <path d="M 416.673531 27.23649 
L 777.246646 27.23649 
" style="fill: none; stroke: #000000; stroke-width: 0.8; stroke-linejoin: miter; stroke-linecap: square"/>
   </g>
   <g id="text_21">
    <!-- Forest (mean squared error) -->
    <g transform="translate(427.773213 21.23649)scale(0.24 -0.24)">
     <defs>
      <path id="DejaVuSans-46" d="M 628 4666 
L 3309 4666 
L 3309 4134 
L 1259 4134 
L 1259 2759 
L 3109 2759 
L 3109 2228 
L 1259 2228 
L 1259 0 
L 628 0 
L 628 4666 
z
" transform="scale(0.015625)"/>
      <path id="DejaVuSans-6f" d="M 1959 3097 
Q 1497 3097 1228 2736 
Q 959 2375 959 1747 
Q 959 1119 1226 758 
Q 1494 397 1959 397 
Q 2419 397 2687 759 
Q 2956 1122 2956 1747 
Q 2956 2369 2687 2733 
Q 2419 3097 1959 3097 
z
M 1959 3584 
Q 2709 3584 3137 3096 
Q 3566 2609 3566 1747 
Q 3566 888 3137 398 
Q 2709 -91 1959 -91 
Q 1206 -91 779 398 
Q 353 888 353 1747 
Q 353 2609 779 3096 
Q 1206 3584 1959 3584 
z
" transform="scale(0.015625)"/>
      <path id="DejaVuSans-72" d="M 2631 2963 
Q 2534 3019 2420 3045 
Q 2306 3072 2169 3072 
Q 1681 3072 1420 2755 
Q 1159 2438 1159 1844 
L 1159 0 
L 581 0 
L 581 3500 
L 1159 3500 
L 1159 2956 
Q 1341 3275 1631 3429 
Q 1922 3584 2338 3584 
Q 2397 3584 2469 3576 
Q 2541 3569 2628 3553 
L 2631 2963 
z
" transform="scale(0.015625)"/>
      <path id="DejaVuSans-65" d="M 3597 1894 
L 3597 1613 
L 953 1613 
Q 991 1019 1311 708 
Q 1631 397 2203 397 
Q 2534 397 2845 478 
Q 3156 559 3463 722 
L 3463 178 
Q 3153 47 2828 -22 
Q 2503 -91 2169 -91 
Q 1331 -91 842 396 
Q 353 884 353 1716 
Q 353 2575 817 3079 
Q 1281 3584 2069 3584 
Q 2775 3584 3186 3129 
Q 3597 2675 3597 1894 
z
M 3022 2063 
Q 3016 2534 2758 2815 
Q 2500 3097 2075 3097 
Q 1594 3097 1305 2825 
Q 1016 2553 972 2059 
L 3022 2063 
z
" transform="scale(0.015625)"/>
      <path id="DejaVuSans-73" d="M 2834 3397 
L 2834 2853 
Q 2591 2978 2328 3040 
Q 2066 3103 1784 3103 
Q 1356 3103 1142 2972 
Q 928 2841 928 2578 
Q 928 2378 1081 2264 
Q 1234 2150 1697 2047 
L 1894 2003 
Q 2506 1872 2764 1633 
Q 3022 1394 3022 966 
Q 3022 478 2636 193 
Q 2250 -91 1575 -91 
Q 1294 -91 989 -36 
Q 684 19 347 128 
L 347 722 
Q 666 556 975 473 
Q 1284 391 1588 391 
Q 1994 391 2212 530 
Q 2431 669 2431 922 
Q 2431 1156 2273 1281 
Q 2116 1406 1581 1522 
L 1381 1569 
Q 847 1681 609 1914 
Q 372 2147 372 2553 
Q 372 3047 722 3315 
Q 1072 3584 1716 3584 
Q 2034 3584 2315 3537 
Q 2597 3491 2834 3397 
z
" transform="scale(0.015625)"/>
      <path id="DejaVuSans-20" transform="scale(0.015625)"/>
      <path id="DejaVuSans-28" d="M 1984 4856 
Q 1566 4138 1362 3434 
Q 1159 2731 1159 2009 
Q 1159 1288 1364 580 
Q 1569 -128 1984 -844 
L 1484 -844 
Q 1016 -109 783 600 
Q 550 1309 550 2009 
Q 550 2706 781 3412 
Q 1013 4119 1484 4856 
L 1984 4856 
z
" transform="scale(0.015625)"/>
      <path id="DejaVuSans-6d" d="M 3328 2828 
Q 3544 3216 3844 3400 
Q 4144 3584 4550 3584 
Q 5097 3584 5394 3201 
Q 5691 2819 5691 2113 
L 5691 0 
L 5113 0 
L 5113 2094 
Q 5113 2597 4934 2840 
Q 4756 3084 4391 3084 
Q 3944 3084 3684 2787 
Q 3425 2491 3425 1978 
L 3425 0 
L 2847 0 
L 2847 2094 
Q 2847 2600 2669 2842 
Q 2491 3084 2119 3084 
Q 1678 3084 1418 2786 
Q 1159 2488 1159 1978 
L 1159 0 
L 581 0 
L 581 3500 
L 1159 3500 
L 1159 2956 
Q 1356 3278 1631 3431 
Q 1906 3584 2284 3584 
Q 2666 3584 2933 3390 
Q 3200 3197 3328 2828 
z
" transform="scale(0.015625)"/>
      <path id="DejaVuSans-6e" d="M 3513 2113 
L 3513 0 
L 2938 0 
L 2938 2094 
Q 2938 2591 2744 2837 
Q 2550 3084 2163 3084 
Q 1697 3084 1428 2787 
Q 1159 2491 1159 1978 
L 1159 0 
L 581 0 
L 581 3500 
L 1159 3500 
L 1159 2956 
Q 1366 3272 1645 3428 
Q 1925 3584 2291 3584 
Q 2894 3584 3203 3211 
Q 3513 2838 3513 2113 
z
" transform="scale(0.015625)"/>
      <path id="DejaVuSans-71" d="M 947 1747 
Q 947 1113 1208 752 
Q 1469 391 1925 391 
Q 2381 391 2643 752 
Q 2906 1113 2906 1747 
Q 2906 2381 2643 2742 
Q 2381 3103 1925 3103 
Q 1469 3103 1208 2742 
Q 947 2381 947 1747 
z
M 2906 525 
Q 2725 213 2448 61 
Q 2172 -91 1784 -91 
Q 1150 -91 751 415 
Q 353 922 353 1747 
Q 353 2572 751 3078 
Q 1150 3584 1784 3584 
Q 2172 3584 2448 3432 
Q 2725 3281 2906 2969 
L 2906 3500 
L 3481 3500 
L 3481 -1331 
L 2906 -1331 
L 2906 525 
z
" transform="scale(0.015625)"/>
      <path id="DejaVuSans-75" d="M 544 1381 
L 544 3500 
L 1119 3500 
L 1119 1403 
Q 1119 906 1312 657 
Q 1506 409 1894 409 
Q 2359 409 2629 706 
Q 2900 1003 2900 1516 
L 2900 3500 
L 3475 3500 
L 3475 0 
L 2900 0 
L 2900 538 
Q 2691 219 2414 64 
Q 2138 -91 1772 -91 
Q 1169 -91 856 284 
Q 544 659 544 1381 
z
M 1991 3584 
L 1991 3584 
z
" transform="scale(0.015625)"/>
      <path id="DejaVuSans-64" d="M 2906 2969 
L 2906 4863 
L 3481 4863 
L 3481 0 
L 2906 0 
L 2906 525 
Q 2725 213 2448 61 
Q 2172 -91 1784 -91 
Q 1150 -91 751 415 
Q 353 922 353 1747 
Q 353 2572 751 3078 
Q 1150 3584 1784 3584 
Q 2172 3584 2448 3432 
Q 2725 3281 2906 2969 
z
M 947 1747 
Q 947 1113 1208 752 
Q 1469 391 1925 391 
Q 2381 391 2643 752 
Q 2906 1113 2906 1747 
Q 2906 2381 2643 2742 
Q 2381 3103 1925 3103 
Q 1469 3103 1208 2742 
Q 947 2381 947 1747 
z
" transform="scale(0.015625)"/>
      <path id="DejaVuSans-29" d="M 513 4856 
L 1013 4856 
Q 1481 4119 1714 3412 
Q 1947 2706 1947 2009 
Q 1947 1309 1714 600 
Q 1481 -109 1013 -844 
L 513 -844 
Q 928 -128 1133 580 
Q 1338 1288 1338 2009 
Q 1338 2731 1133 3434 
Q 928 4138 513 4856 
z
" transform="scale(0.015625)"/>
     </defs>
     <use xlink:href="#DejaVuSans-46"/>
     <use xlink:href="#DejaVuSans-6f" x="53.894531"/>
     <use xlink:href="#DejaVuSans-72" x="115.076172"/>
     <use xlink:href="#DejaVuSans-65" x="153.939453"/>
     <use xlink:href="#DejaVuSans-73" x="215.462891"/>
     <use xlink:href="#DejaVuSans-74" x="267.5625"/>
     <use xlink:href="#DejaVuSans-20" x="306.771484"/>
     <use xlink:href="#DejaVuSans-28" x="338.558594"/>
     <use xlink:href="#DejaVuSans-6d" x="377.572266"/>
     <use xlink:href="#DejaVuSans-65" x="474.984375"/>
     <use xlink:href="#DejaVuSans-61" x="536.507812"/>
     <use xlink:href="#DejaVuSans-6e" x="597.787109"/>
     <use xlink:href="#DejaVuSans-20" x="661.166016"/>
     <use xlink:href="#DejaVuSans-73" x="692.953125"/>
     <use xlink:href="#DejaVuSans-71" x="745.052734"/>
     <use xlink:href="#DejaVuSans-75" x="808.529297"/>
     <use xlink:href="#DejaVuSans-61" x="871.908203"/>
     <use xlink:href="#DejaVuSans-72" x="933.1875"/>
     <use xlink:href="#DejaVuSans-65" x="972.050781"/>
     <use xlink:href="#DejaVuSans-64" x="1033.574219"/>
     <use xlink:href="#DejaVuSans-20" x="1097.050781"/>
     <use xlink:href="#DejaVuSans-65" x="1128.837891"/>
     <use xlink:href="#DejaVuSans-72" x="1190.361328"/>
     <use xlink:href="#DejaVuSans-72" x="1229.724609"/>
     <use xlink:href="#DejaVuSans-6f" x="1268.587891"/>
     <use xlink:href="#DejaVuSans-72" x="1329.769531"/>
     <use xlink:href="#DejaVuSans-29" x="1370.882812"/>
    </g>
   </g>
  </g>
  <g id="axes_3">
   <g id="patch_62">
    <path d="M 788.426646 320.192558 
L 1148.99976 320.192558 
L 1148.99976 27.23649 
L 788.426646 27.23649 
z
" style="fill: #ffffff"/>
   </g>
   <g id="patch_63">
    <path d="M 804.816333 320.192558 
L 817.928082 320.192558 
L 817.928082 91.156157 
L 804.816333 91.156157 
z
" clip-path="url(#pa28072a748)" style="fill: #ff7f0e"/>
   </g>
   <g id="patch_64">
    <path d="M 817.928082 320.192558 
L 831.039832 320.192558 
L 831.039832 226.726832 
L 817.928082 226.726832 
z
" clip-path="url(#pa28072a748)" style="fill: #ff7f0e"/>
   </g>
   <g id="patch_65">
    <path d="M 831.039832 320.192558 
L 844.151581 320.192558 
L 844.151581 230.47756 
L 831.039832 230.47756 
z
" clip-path="url(#pa28072a748)" style="fill: #ff7f0e"/>
   </g>
   <g id="patch_66">
    <path d="M 844.151581 320.192558 
L 857.263331 320.192558 
L 857.263331 232.655402 
L 844.151581 232.655402 
z
" clip-path="url(#pa28072a748)" style="fill: #ff7f0e"/>
   </g>
   <g id="patch_67">
    <path d="M 857.263331 320.192558 
L 870.375081 320.192558 
L 870.375081 238.644468 
L 857.263331 238.644468 
z
" clip-path="url(#pa28072a748)" style="fill: #ff7f0e"/>
   </g>
   <g id="patch_68">
    <path d="M 870.375081 320.192558 
L 883.48683 320.192558 
L 883.48683 246.508898 
L 870.375081 246.508898 
z
" clip-path="url(#pa28072a748)" style="fill: #ff7f0e"/>
   </g>
   <g id="patch_69">
    <path d="M 883.48683 320.192558 
L 896.59858 320.192558 
L 896.59858 257.458604 
L 883.48683 257.458604 
z
" clip-path="url(#pa28072a748)" style="fill: #ff7f0e"/>
   </g>
   <g id="patch_70">
    <path d="M 896.59858 320.192558 
L 909.710329 320.192558 
L 909.710329 269.255249 
L 896.59858 269.255249 
z
" clip-path="url(#pa28072a748)" style="fill: #ff7f0e"/>
   </g>
   <g id="patch_71">
    <path d="M 909.710329 320.192558 
L 922.822079 320.192558 
L 922.822079 269.739214 
L 909.710329 269.739214 
z
" clip-path="url(#pa28072a748)" style="fill: #ff7f0e"/>
   </g>
   <g id="patch_72">
    <path d="M 922.822079 320.192558 
L 935.933829 320.192558 
L 935.933829 285.347083 
L 922.822079 285.347083 
z
" clip-path="url(#pa28072a748)" style="fill: #ff7f0e"/>
   </g>
   <g id="patch_73">
    <path d="M 935.933829 320.192558 
L 949.045578 320.192558 
L 949.045578 283.04825 
L 935.933829 283.04825 
z
" clip-path="url(#pa28072a748)" style="fill: #ff7f0e"/>
   </g>
   <g id="patch_74">
    <path d="M 949.045578 320.192558 
L 962.157328 320.192558 
L 962.157328 292.42507 
L 949.045578 292.42507 
z
" clip-path="url(#pa28072a748)" style="fill: #ff7f0e"/>
   </g>
   <g id="patch_75">
    <path d="M 962.157328 320.192558 
L 975.269078 320.192558 
L 975.269078 298.77711 
L 962.157328 298.77711 
z
" clip-path="url(#pa28072a748)" style="fill: #ff7f0e"/>
   </g>
   <g id="patch_76">
    <path d="M 975.269078 320.192558 
L 988.380827 320.192558 
L 988.380827 308.395913 
L 975.269078 308.395913 
z
" clip-path="url(#pa28072a748)" style="fill: #ff7f0e"/>
   </g>
   <g id="patch_77">
    <path d="M 988.380827 320.192558 
L 1001.492577 320.192558 
L 1001.492577 314.022005 
L 988.380827 314.022005 
z
" clip-path="url(#pa28072a748)" style="fill: #ff7f0e"/>
   </g>
   <g id="patch_78">
    <path d="M 1001.492577 320.192558 
L 1014.604326 320.192558 
L 1014.604326 311.904658 
L 1001.492577 311.904658 
z
" clip-path="url(#pa28072a748)" style="fill: #ff7f0e"/>
   </g>
   <g id="patch_79">
    <path d="M 1014.604326 320.192558 
L 1027.716076 320.192558 
L 1027.716076 308.698391 
L 1014.604326 308.698391 
z
" clip-path="url(#pa28072a748)" style="fill: #ff7f0e"/>
   </g>
   <g id="patch_80">
    <path d="M 1027.716076 320.192558 
L 1040.827826 320.192558 
L 1040.827826 309.787312 
L 1027.716076 309.787312 
z
" clip-path="url(#pa28072a748)" style="fill: #ff7f0e"/>
   </g>
   <g id="patch_81">
    <path d="M 1040.827826 320.192558 
L 1053.939575 320.192558 
L 1053.939575 311.178711 
L 1040.827826 311.178711 
z
" clip-path="url(#pa28072a748)" style="fill: #ff7f0e"/>
   </g>
   <g id="patch_82">
    <path d="M 1053.939575 320.192558 
L 1067.051325 320.192558 
L 1067.051325 312.086145 
L 1053.939575 312.086145 
z
" clip-path="url(#pa28072a748)" style="fill: #ff7f0e"/>
   </g>
   <g id="patch_83">
    <path d="M 1067.051325 320.192558 
L 1080.163075 320.192558 
L 1080.163075 313.780022 
L 1067.051325 313.780022 
z
" clip-path="url(#pa28072a748)" style="fill: #ff7f0e"/>
   </g>
   <g id="patch_84">
    <path d="M 1080.163075 320.192558 
L 1093.274824 320.192558 
L 1093.274824 316.623316 
L 1080.163075 316.623316 
z
" clip-path="url(#pa28072a748)" style="fill: #ff7f0e"/>
   </g>
   <g id="patch_85">
    <path d="M 1093.274824 320.192558 
L 1106.386574 320.192558 
L 1106.386574 319.587601 
L 1093.274824 319.587601 
z
" clip-path="url(#pa28072a748)" style="fill: #ff7f0e"/>
   </g>
   <g id="patch_86">
    <path d="M 1106.386574 320.192558 
L 1119.498323 320.192558 
L 1119.498323 320.132062 
L 1106.386574 320.132062 
z
" clip-path="url(#pa28072a748)" style="fill: #ff7f0e"/>
   </g>
   <g id="patch_87">
    <path d="M 1119.498323 320.192558 
L 1132.610073 320.192558 
L 1132.610073 320.071566 
L 1119.498323 320.071566 
z
" clip-path="url(#pa28072a748)" style="fill: #ff7f0e"/>
   </g>
   <g id="matplotlib.axis_5">
    <g id="xtick_15">
     <g id="line2d_25">
      <g>
       <use xlink:href="#mff030a84af" x="803.198413" y="320.192558" style="stroke: #000000; stroke-width: 0.8"/>
      </g>
     </g>
     <g id="text_22">
      <!-- 0 -->
      <g transform="translate(802.84044 339.038806)rotate(-45)scale(0.12 -0.12)">
       <use xlink:href="#DejaVuSans-30"/>
      </g>
     </g>
    </g>
    <g id="xtick_16">
     <g id="line2d_26">
      <g>
       <use xlink:href="#mff030a84af" x="866.128678" y="320.192558" style="stroke: #000000; stroke-width: 0.8"/>
      </g>
     </g>
     <g id="text_23">
      <!-- 1000 -->
      <g transform="translate(857.672565 355.235087)rotate(-45)scale(0.12 -0.12)">
       <use xlink:href="#DejaVuSans-31"/>
       <use xlink:href="#DejaVuSans-30" x="63.623047"/>
       <use xlink:href="#DejaVuSans-30" x="127.246094"/>
       <use xlink:href="#DejaVuSans-30" x="190.869141"/>
      </g>
     </g>
    </g>
    <g id="xtick_17">
     <g id="line2d_27">
      <g>
       <use xlink:href="#mff030a84af" x="929.058944" y="320.192558" style="stroke: #000000; stroke-width: 0.8"/>
      </g>
     </g>
     <g id="text_24">
      <!-- 2000 -->
      <g transform="translate(920.60283 355.235087)rotate(-45)scale(0.12 -0.12)">
       <use xlink:href="#DejaVuSans-32"/>
       <use xlink:href="#DejaVuSans-30" x="63.623047"/>
       <use xlink:href="#DejaVuSans-30" x="127.246094"/>
       <use xlink:href="#DejaVuSans-30" x="190.869141"/>
      </g>
     </g>
    </g>
    <g id="xtick_18">
     <g id="line2d_28">
      <g>
       <use xlink:href="#mff030a84af" x="991.989209" y="320.192558" style="stroke: #000000; stroke-width: 0.8"/>
      </g>
     </g>
     <g id="text_25">
      <!-- 3000 -->
      <g transform="translate(983.533096 355.235087)rotate(-45)scale(0.12 -0.12)">
       <use xlink:href="#DejaVuSans-33"/>
       <use xlink:href="#DejaVuSans-30" x="63.623047"/>
       <use xlink:href="#DejaVuSans-30" x="127.246094"/>
       <use xlink:href="#DejaVuSans-30" x="190.869141"/>
      </g>
     </g>
    </g>
    <g id="xtick_19">
     <g id="line2d_29">
      <g>
       <use xlink:href="#mff030a84af" x="1054.919474" y="320.192558" style="stroke: #000000; stroke-width: 0.8"/>
      </g>
     </g>
     <g id="text_26">
      <!-- 4000 -->
      <g transform="translate(1046.463361 355.235087)rotate(-45)scale(0.12 -0.12)">
       <use xlink:href="#DejaVuSans-34"/>
       <use xlink:href="#DejaVuSans-30" x="63.623047"/>
       <use xlink:href="#DejaVuSans-30" x="127.246094"/>
       <use xlink:href="#DejaVuSans-30" x="190.869141"/>
      </g>
     </g>
    </g>
    <g id="xtick_20">
     <g id="line2d_30">
      <g>
       <use xlink:href="#mff030a84af" x="1117.849739" y="320.192558" style="stroke: #000000; stroke-width: 0.8"/>
      </g>
     </g>
     <g id="text_27">
      <!-- 5000 -->
      <g transform="translate(1109.393626 355.235087)rotate(-45)scale(0.12 -0.12)">
       <use xlink:href="#DejaVuSans-35"/>
       <use xlink:href="#DejaVuSans-30" x="63.623047"/>
       <use xlink:href="#DejaVuSans-30" x="127.246094"/>
       <use xlink:href="#DejaVuSans-30" x="190.869141"/>
      </g>
     </g>
    </g>
   </g>
   <g id="matplotlib.axis_6">
    <g id="ytick_11">
     <g id="line2d_31">
      <g>
       <use xlink:href="#mc8de25ac08" x="788.426646" y="320.192558" style="stroke: #000000; stroke-width: 0.8"/>
      </g>
     </g>
    </g>
    <g id="ytick_12">
     <g id="line2d_32">
      <g>
       <use xlink:href="#mc8de25ac08" x="788.426646" y="259.696942" style="stroke: #000000; stroke-width: 0.8"/>
      </g>
     </g>
    </g>
    <g id="ytick_13">
     <g id="line2d_33">
      <g>
       <use xlink:href="#mc8de25ac08" x="788.426646" y="199.201327" style="stroke: #000000; stroke-width: 0.8"/>
      </g>
     </g>
    </g>
    <g id="ytick_14">
     <g id="line2d_34">
      <g>
       <use xlink:href="#mc8de25ac08" x="788.426646" y="138.705711" style="stroke: #000000; stroke-width: 0.8"/>
      </g>
     </g>
    </g>
    <g id="ytick_15">
     <g id="line2d_35">
      <g>
       <use xlink:href="#mc8de25ac08" x="788.426646" y="78.210096" style="stroke: #000000; stroke-width: 0.8"/>
      </g>
     </g>
    </g>
   </g>
   <g id="patch_88">
    <path d="M 788.426646 320.192558 
L 788.426646 27.23649 
" style="fill: none; stroke: #000000; stroke-width: 0.8; stroke-linejoin: miter; stroke-linecap: square"/>
   </g>
   <g id="patch_89">
    <path d="M 1148.99976 320.192558 
L 1148.99976 27.23649 
" style="fill: none; stroke: #000000; stroke-width: 0.8; stroke-linejoin: miter; stroke-linecap: square"/>
   </g>
   <g id="patch_90">
    <path d="M 788.426646 320.192558 
L 1148.99976 320.192558 
" style="fill: none; stroke: #000000; stroke-width: 0.8; stroke-linejoin: miter; stroke-linecap: square"/>
   </g>
   <g id="patch_91">
    <path d="M 788.426646 27.23649 
L 1148.99976 27.23649 
" style="fill: none; stroke: #000000; stroke-width: 0.8; stroke-linejoin: miter; stroke-linecap: square"/>
   </g>
   <g id="text_28">
    <!-- Forest (poisson) -->
    <g transform="translate(872.979453 21.23649)scale(0.24 -0.24)">
     <defs>
      <path id="DejaVuSans-70" d="M 1159 525 
L 1159 -1331 
L 581 -1331 
L 581 3500 
L 1159 3500 
L 1159 2969 
Q 1341 3281 1617 3432 
Q 1894 3584 2278 3584 
Q 2916 3584 3314 3078 
Q 3713 2572 3713 1747 
Q 3713 922 3314 415 
Q 2916 -91 2278 -91 
Q 1894 -91 1617 61 
Q 1341 213 1159 525 
z
M 3116 1747 
Q 3116 2381 2855 2742 
Q 2594 3103 2138 3103 
Q 1681 3103 1420 2742 
Q 1159 2381 1159 1747 
Q 1159 1113 1420 752 
Q 1681 391 2138 391 
Q 2594 391 2855 752 
Q 3116 1113 3116 1747 
z
" transform="scale(0.015625)"/>
      <path id="DejaVuSans-69" d="M 603 3500 
L 1178 3500 
L 1178 0 
L 603 0 
L 603 3500 
z
M 603 4863 
L 1178 4863 
L 1178 4134 
L 603 4134 
L 603 4863 
z
" transform="scale(0.015625)"/>
     </defs>
     <use xlink:href="#DejaVuSans-46"/>
     <use xlink:href="#DejaVuSans-6f" x="53.894531"/>
     <use xlink:href="#DejaVuSans-72" x="115.076172"/>
     <use xlink:href="#DejaVuSans-65" x="153.939453"/>
     <use xlink:href="#DejaVuSans-73" x="215.462891"/>
     <use xlink:href="#DejaVuSans-74" x="267.5625"/>
     <use xlink:href="#DejaVuSans-20" x="306.771484"/>
     <use xlink:href="#DejaVuSans-28" x="338.558594"/>
     <use xlink:href="#DejaVuSans-70" x="377.572266"/>
     <use xlink:href="#DejaVuSans-6f" x="441.048828"/>
     <use xlink:href="#DejaVuSans-69" x="502.230469"/>
     <use xlink:href="#DejaVuSans-73" x="530.013672"/>
     <use xlink:href="#DejaVuSans-73" x="582.113281"/>
     <use xlink:href="#DejaVuSans-6f" x="634.212891"/>
     <use xlink:href="#DejaVuSans-6e" x="695.394531"/>
     <use xlink:href="#DejaVuSans-29" x="758.773438"/>
    </g>
   </g>
  </g>
 </g>
 <defs>
  <clipPath id="p0e4a2e4596">
   <rect x="40.54024" y="27.23649" width="360.573114" height="292.956068"/>
  </clipPath>
  <clipPath id="pa4c2a9493e">
   <rect x="416.673531" y="27.23649" width="360.573114" height="292.956068"/>
  </clipPath>
  <clipPath id="pa28072a748">
   <rect x="788.426646" y="27.23649" width="360.573114" height="292.956068"/>
  </clipPath>
 </defs>
</svg>
