<?xml version="1.0" encoding="utf-8" standalone="no"?>
<!DOCTYPE svg PUBLIC "-//W3C//DTD SVG 1.1//EN"
  "http://www.w3.org/Graphics/SVG/1.1/DTD/svg11.dtd">
<svg xmlns:xlink="http://www.w3.org/1999/xlink" width="576pt" height="360pt" viewBox="0 0 576 360" xmlns="http://www.w3.org/2000/svg" version="1.1">
 <metadata>
  <rdf:RDF xmlns:dc="http://purl.org/dc/elements/1.1/" xmlns:cc="http://creativecommons.org/ns#" xmlns:rdf="http://www.w3.org/1999/02/22-rdf-syntax-ns#">
   <cc:Work>
    <dc:type rdf:resource="http://purl.org/dc/dcmitype/StillImage"/>
    <dc:date>2022-07-12T15:41:36.833544</dc:date>
    <dc:format>image/svg+xml</dc:format>
    <dc:creator>
     <cc:Agent>
      <dc:title>Matplotlib v3.5.2, https://matplotlib.org/</dc:title>
     </cc:Agent>
    </dc:creator>
   </cc:Work>
  </rdf:RDF>
 </metadata>
 <defs>
  <style type="text/css">*{stroke-linejoin: round; stroke-linecap: butt}</style>
 </defs>
 <g id="figure_1">
  <g id="patch_1">
   <path d="M 0 360 
L 576 360 
L 576 0 
L 0 0 
L 0 360 
z
" style="fill: none"/>
  </g>
  <g id="axes_1">
   <g id="patch_2">
    <path d="M 25.903365 326.64351 
L 572.99976 326.64351 
L 572.99976 22.677427 
L 25.903365 22.677427 
z
" style="fill: #ffffff"/>
   </g>
   <g id="matplotlib.axis_1">
    <g id="xtick_1">
     <g id="line2d_1">
      <defs>
       <path id="m28d057140c" d="M 0 0 
L 0 3.5 
" style="stroke: #000000; stroke-width: 0.8"/>
      </defs>
      <g>
       <use xlink:href="#m28d057140c" x="50.771383" y="326.64351" style="stroke: #000000; stroke-width: 0.8"/>
      </g>
     </g>
     <g id="text_1">
      <!-- 0 -->
      <g transform="translate(47.590133 341.241947)scale(0.1 -0.1)">
       <defs>
        <path id="DejaVuSans-30" d="M 2034 4250 
Q 1547 4250 1301 3770 
Q 1056 3291 1056 2328 
Q 1056 1369 1301 889 
Q 1547 409 2034 409 
Q 2525 409 2770 889 
Q 3016 1369 3016 2328 
Q 3016 3291 2770 3770 
Q 2525 4250 2034 4250 
z
M 2034 4750 
Q 2819 4750 3233 4129 
Q 3647 3509 3647 2328 
Q 3647 1150 3233 529 
Q 2819 -91 2034 -91 
Q 1250 -91 836 529 
Q 422 1150 422 2328 
Q 422 3509 836 4129 
Q 1250 4750 2034 4750 
z
" transform="scale(0.015625)"/>
       </defs>
       <use xlink:href="#DejaVuSans-30"/>
      </g>
     </g>
    </g>
    <g id="xtick_2">
     <g id="line2d_2">
      <g>
       <use xlink:href="#m28d057140c" x="121.822863" y="326.64351" style="stroke: #000000; stroke-width: 0.8"/>
      </g>
     </g>
     <g id="text_2">
      <!-- 4 -->
      <g transform="translate(118.641613 341.241947)scale(0.1 -0.1)">
       <defs>
        <path id="DejaVuSans-34" d="M 2419 4116 
L 825 1625 
L 2419 1625 
L 2419 4116 
z
M 2253 4666 
L 3047 4666 
L 3047 1625 
L 3713 1625 
L 3713 1100 
L 3047 1100 
L 3047 0 
L 2419 0 
L 2419 1100 
L 313 1100 
L 313 1709 
L 2253 4666 
z
" transform="scale(0.015625)"/>
       </defs>
       <use xlink:href="#DejaVuSans-34"/>
      </g>
     </g>
    </g>
    <g id="xtick_3">
     <g id="line2d_3">
      <g>
       <use xlink:href="#m28d057140c" x="192.874343" y="326.64351" style="stroke: #000000; stroke-width: 0.8"/>
      </g>
     </g>
     <g id="text_3">
      <!-- 8 -->
      <g transform="translate(189.693093 341.241947)scale(0.1 -0.1)">
       <defs>
        <path id="DejaVuSans-38" d="M 2034 2216 
Q 1584 2216 1326 1975 
Q 1069 1734 1069 1313 
Q 1069 891 1326 650 
Q 1584 409 2034 409 
Q 2484 409 2743 651 
Q 3003 894 3003 1313 
Q 3003 1734 2745 1975 
Q 2488 2216 2034 2216 
z
M 1403 2484 
Q 997 2584 770 2862 
Q 544 3141 544 3541 
Q 544 4100 942 4425 
Q 1341 4750 2034 4750 
Q 2731 4750 3128 4425 
Q 3525 4100 3525 3541 
Q 3525 3141 3298 2862 
Q 3072 2584 2669 2484 
Q 3125 2378 3379 2068 
Q 3634 1759 3634 1313 
Q 3634 634 3220 271 
Q 2806 -91 2034 -91 
Q 1263 -91 848 271 
Q 434 634 434 1313 
Q 434 1759 690 2068 
Q 947 2378 1403 2484 
z
M 1172 3481 
Q 1172 3119 1398 2916 
Q 1625 2713 2034 2713 
Q 2441 2713 2670 2916 
Q 2900 3119 2900 3481 
Q 2900 3844 2670 4047 
Q 2441 4250 2034 4250 
Q 1625 4250 1398 4047 
Q 1172 3844 1172 3481 
z
" transform="scale(0.015625)"/>
       </defs>
       <use xlink:href="#DejaVuSans-38"/>
      </g>
     </g>
    </g>
    <g id="xtick_4">
     <g id="line2d_4">
      <g>
       <use xlink:href="#m28d057140c" x="263.925823" y="326.64351" style="stroke: #000000; stroke-width: 0.8"/>
      </g>
     </g>
     <g id="text_4">
      <!-- 12 -->
      <g transform="translate(257.563323 341.241947)scale(0.1 -0.1)">
       <defs>
        <path id="DejaVuSans-31" d="M 794 531 
L 1825 531 
L 1825 4091 
L 703 3866 
L 703 4441 
L 1819 4666 
L 2450 4666 
L 2450 531 
L 3481 531 
L 3481 0 
L 794 0 
L 794 531 
z
" transform="scale(0.015625)"/>
        <path id="DejaVuSans-32" d="M 1228 531 
L 3431 531 
L 3431 0 
L 469 0 
L 469 531 
Q 828 903 1448 1529 
Q 2069 2156 2228 2338 
Q 2531 2678 2651 2914 
Q 2772 3150 2772 3378 
Q 2772 3750 2511 3984 
Q 2250 4219 1831 4219 
Q 1534 4219 1204 4116 
Q 875 4013 500 3803 
L 500 4441 
Q 881 4594 1212 4672 
Q 1544 4750 1819 4750 
Q 2544 4750 2975 4387 
Q 3406 4025 3406 3419 
Q 3406 3131 3298 2873 
Q 3191 2616 2906 2266 
Q 2828 2175 2409 1742 
Q 1991 1309 1228 531 
z
" transform="scale(0.015625)"/>
       </defs>
       <use xlink:href="#DejaVuSans-31"/>
       <use xlink:href="#DejaVuSans-32" x="63.623047"/>
      </g>
     </g>
    </g>
    <g id="xtick_5">
     <g id="line2d_5">
      <g>
       <use xlink:href="#m28d057140c" x="334.977302" y="326.64351" style="stroke: #000000; stroke-width: 0.8"/>
      </g>
     </g>
     <g id="text_5">
      <!-- 16 -->
      <g transform="translate(328.614802 341.241947)scale(0.1 -0.1)">
       <defs>
        <path id="DejaVuSans-36" d="M 2113 2584 
Q 1688 2584 1439 2293 
Q 1191 2003 1191 1497 
Q 1191 994 1439 701 
Q 1688 409 2113 409 
Q 2538 409 2786 701 
Q 3034 994 3034 1497 
Q 3034 2003 2786 2293 
Q 2538 2584 2113 2584 
z
M 3366 4563 
L 3366 3988 
Q 3128 4100 2886 4159 
Q 2644 4219 2406 4219 
Q 1781 4219 1451 3797 
Q 1122 3375 1075 2522 
Q 1259 2794 1537 2939 
Q 1816 3084 2150 3084 
Q 2853 3084 3261 2657 
Q 3669 2231 3669 1497 
Q 3669 778 3244 343 
Q 2819 -91 2113 -91 
Q 1303 -91 875 529 
Q 447 1150 447 2328 
Q 447 3434 972 4092 
Q 1497 4750 2381 4750 
Q 2619 4750 2861 4703 
Q 3103 4656 3366 4563 
z
" transform="scale(0.015625)"/>
       </defs>
       <use xlink:href="#DejaVuSans-31"/>
       <use xlink:href="#DejaVuSans-36" x="63.623047"/>
      </g>
     </g>
    </g>
    <g id="xtick_6">
     <g id="line2d_6">
      <g>
       <use xlink:href="#m28d057140c" x="406.028782" y="326.64351" style="stroke: #000000; stroke-width: 0.8"/>
      </g>
     </g>
     <g id="text_6">
      <!-- 20 -->
      <g transform="translate(399.666282 341.241947)scale(0.1 -0.1)">
       <use xlink:href="#DejaVuSans-32"/>
       <use xlink:href="#DejaVuSans-30" x="63.623047"/>
      </g>
     </g>
    </g>
    <g id="xtick_7">
     <g id="line2d_7">
      <g>
       <use xlink:href="#m28d057140c" x="477.080262" y="326.64351" style="stroke: #000000; stroke-width: 0.8"/>
      </g>
     </g>
     <g id="text_7">
      <!-- 24 -->
      <g transform="translate(470.717762 341.241947)scale(0.1 -0.1)">
       <use xlink:href="#DejaVuSans-32"/>
       <use xlink:href="#DejaVuSans-34" x="63.623047"/>
      </g>
     </g>
    </g>
    <g id="xtick_8">
     <g id="line2d_8">
      <g>
       <use xlink:href="#m28d057140c" x="548.131742" y="326.64351" style="stroke: #000000; stroke-width: 0.8"/>
      </g>
     </g>
     <g id="text_8">
      <!-- 28 -->
      <g transform="translate(541.769242 341.241947)scale(0.1 -0.1)">
       <use xlink:href="#DejaVuSans-32"/>
       <use xlink:href="#DejaVuSans-38" x="63.623047"/>
      </g>
     </g>
    </g>
    <g id="text_9">
     <!-- hour -->
     <g transform="translate(287.999219 354.920073)scale(0.1 -0.1)">
      <defs>
       <path id="DejaVuSans-68" d="M 3513 2113 
L 3513 0 
L 2938 0 
L 2938 2094 
Q 2938 2591 2744 2837 
Q 2550 3084 2163 3084 
Q 1697 3084 1428 2787 
Q 1159 2491 1159 1978 
L 1159 0 
L 581 0 
L 581 4863 
L 1159 4863 
L 1159 2956 
Q 1366 3272 1645 3428 
Q 1925 3584 2291 3584 
Q 2894 3584 3203 3211 
Q 3513 2838 3513 2113 
z
" transform="scale(0.015625)"/>
       <path id="DejaVuSans-6f" d="M 1959 3097 
Q 1497 3097 1228 2736 
Q 959 2375 959 1747 
Q 959 1119 1226 758 
Q 1494 397 1959 397 
Q 2419 397 2687 759 
Q 2956 1122 2956 1747 
Q 2956 2369 2687 2733 
Q 2419 3097 1959 3097 
z
M 1959 3584 
Q 2709 3584 3137 3096 
Q 3566 2609 3566 1747 
Q 3566 888 3137 398 
Q 2709 -91 1959 -91 
Q 1206 -91 779 398 
Q 353 888 353 1747 
Q 353 2609 779 3096 
Q 1206 3584 1959 3584 
z
" transform="scale(0.015625)"/>
       <path id="DejaVuSans-75" d="M 544 1381 
L 544 3500 
L 1119 3500 
L 1119 1403 
Q 1119 906 1312 657 
Q 1506 409 1894 409 
Q 2359 409 2629 706 
Q 2900 1003 2900 1516 
L 2900 3500 
L 3475 3500 
L 3475 0 
L 2900 0 
L 2900 538 
Q 2691 219 2414 64 
Q 2138 -91 1772 -91 
Q 1169 -91 856 284 
Q 544 659 544 1381 
z
M 1991 3584 
L 1991 3584 
z
" transform="scale(0.015625)"/>
       <path id="DejaVuSans-72" d="M 2631 2963 
Q 2534 3019 2420 3045 
Q 2306 3072 2169 3072 
Q 1681 3072 1420 2755 
Q 1159 2438 1159 1844 
L 1159 0 
L 581 0 
L 581 3500 
L 1159 3500 
L 1159 2956 
Q 1341 3275 1631 3429 
Q 1922 3584 2338 3584 
Q 2397 3584 2469 3576 
Q 2541 3569 2628 3553 
L 2631 2963 
z
" transform="scale(0.015625)"/>
      </defs>
      <use xlink:href="#DejaVuSans-68"/>
      <use xlink:href="#DejaVuSans-6f" x="63.378906"/>
      <use xlink:href="#DejaVuSans-75" x="124.560547"/>
      <use xlink:href="#DejaVuSans-72" x="187.939453"/>
     </g>
    </g>
   </g>
   <g id="matplotlib.axis_2">
    <g id="ytick_1">
     <g id="line2d_9">
      <defs>
       <path id="m3536b3ecb8" d="M 0 0 
L -3.5 0 
" style="stroke: #000000; stroke-width: 0.8"/>
      </defs>
      <g>
       <use xlink:href="#m3536b3ecb8" x="25.903365" y="312.82687" style="stroke: #000000; stroke-width: 0.8"/>
      </g>
     </g>
     <g id="text_10">
      <!-- 0.0 -->
      <g transform="translate(3.00024 316.626089)scale(0.1 -0.1)">
       <defs>
        <path id="DejaVuSans-2e" d="M 684 794 
L 1344 794 
L 1344 0 
L 684 0 
L 684 794 
z
" transform="scale(0.015625)"/>
       </defs>
       <use xlink:href="#DejaVuSans-30"/>
       <use xlink:href="#DejaVuSans-2e" x="63.623047"/>
       <use xlink:href="#DejaVuSans-30" x="95.410156"/>
      </g>
     </g>
    </g>
    <g id="ytick_2">
     <g id="line2d_10">
      <g>
       <use xlink:href="#m3536b3ecb8" x="25.903365" y="271.37695" style="stroke: #000000; stroke-width: 0.8"/>
      </g>
     </g>
     <g id="text_11">
      <!-- 0.1 -->
      <g transform="translate(3.00024 275.176168)scale(0.1 -0.1)">
       <use xlink:href="#DejaVuSans-30"/>
       <use xlink:href="#DejaVuSans-2e" x="63.623047"/>
       <use xlink:href="#DejaVuSans-31" x="95.410156"/>
      </g>
     </g>
    </g>
    <g id="ytick_3">
     <g id="line2d_11">
      <g>
       <use xlink:href="#m3536b3ecb8" x="25.903365" y="229.927029" style="stroke: #000000; stroke-width: 0.8"/>
      </g>
     </g>
     <g id="text_12">
      <!-- 0.2 -->
      <g transform="translate(3.00024 233.726248)scale(0.1 -0.1)">
       <use xlink:href="#DejaVuSans-30"/>
       <use xlink:href="#DejaVuSans-2e" x="63.623047"/>
       <use xlink:href="#DejaVuSans-32" x="95.410156"/>
      </g>
     </g>
    </g>
    <g id="ytick_4">
     <g id="line2d_12">
      <g>
       <use xlink:href="#m3536b3ecb8" x="25.903365" y="188.477109" style="stroke: #000000; stroke-width: 0.8"/>
      </g>
     </g>
     <g id="text_13">
      <!-- 0.3 -->
      <g transform="translate(3.00024 192.276328)scale(0.1 -0.1)">
       <defs>
        <path id="DejaVuSans-33" d="M 2597 2516 
Q 3050 2419 3304 2112 
Q 3559 1806 3559 1356 
Q 3559 666 3084 287 
Q 2609 -91 1734 -91 
Q 1441 -91 1130 -33 
Q 819 25 488 141 
L 488 750 
Q 750 597 1062 519 
Q 1375 441 1716 441 
Q 2309 441 2620 675 
Q 2931 909 2931 1356 
Q 2931 1769 2642 2001 
Q 2353 2234 1838 2234 
L 1294 2234 
L 1294 2753 
L 1863 2753 
Q 2328 2753 2575 2939 
Q 2822 3125 2822 3475 
Q 2822 3834 2567 4026 
Q 2313 4219 1838 4219 
Q 1578 4219 1281 4162 
Q 984 4106 628 3988 
L 628 4550 
Q 988 4650 1302 4700 
Q 1616 4750 1894 4750 
Q 2613 4750 3031 4423 
Q 3450 4097 3450 3541 
Q 3450 3153 3228 2886 
Q 3006 2619 2597 2516 
z
" transform="scale(0.015625)"/>
       </defs>
       <use xlink:href="#DejaVuSans-30"/>
       <use xlink:href="#DejaVuSans-2e" x="63.623047"/>
       <use xlink:href="#DejaVuSans-33" x="95.410156"/>
      </g>
     </g>
    </g>
    <g id="ytick_5">
     <g id="line2d_13">
      <g>
       <use xlink:href="#m3536b3ecb8" x="25.903365" y="147.027189" style="stroke: #000000; stroke-width: 0.8"/>
      </g>
     </g>
     <g id="text_14">
      <!-- 0.4 -->
      <g transform="translate(3.00024 150.826407)scale(0.1 -0.1)">
       <use xlink:href="#DejaVuSans-30"/>
       <use xlink:href="#DejaVuSans-2e" x="63.623047"/>
       <use xlink:href="#DejaVuSans-34" x="95.410156"/>
      </g>
     </g>
    </g>
    <g id="ytick_6">
     <g id="line2d_14">
      <g>
       <use xlink:href="#m3536b3ecb8" x="25.903365" y="105.577268" style="stroke: #000000; stroke-width: 0.8"/>
      </g>
     </g>
     <g id="text_15">
      <!-- 0.5 -->
      <g transform="translate(3.00024 109.376487)scale(0.1 -0.1)">
       <defs>
        <path id="DejaVuSans-35" d="M 691 4666 
L 3169 4666 
L 3169 4134 
L 1269 4134 
L 1269 2991 
Q 1406 3038 1543 3061 
Q 1681 3084 1819 3084 
Q 2600 3084 3056 2656 
Q 3513 2228 3513 1497 
Q 3513 744 3044 326 
Q 2575 -91 1722 -91 
Q 1428 -91 1123 -41 
Q 819 9 494 109 
L 494 744 
Q 775 591 1075 516 
Q 1375 441 1709 441 
Q 2250 441 2565 725 
Q 2881 1009 2881 1497 
Q 2881 1984 2565 2268 
Q 2250 2553 1709 2553 
Q 1456 2553 1204 2497 
Q 953 2441 691 2322 
L 691 4666 
z
" transform="scale(0.015625)"/>
       </defs>
       <use xlink:href="#DejaVuSans-30"/>
       <use xlink:href="#DejaVuSans-2e" x="63.623047"/>
       <use xlink:href="#DejaVuSans-35" x="95.410156"/>
      </g>
     </g>
    </g>
    <g id="ytick_7">
     <g id="line2d_15">
      <g>
       <use xlink:href="#m3536b3ecb8" x="25.903365" y="64.127348" style="stroke: #000000; stroke-width: 0.8"/>
      </g>
     </g>
     <g id="text_16">
      <!-- 0.6 -->
      <g transform="translate(3.00024 67.926567)scale(0.1 -0.1)">
       <use xlink:href="#DejaVuSans-30"/>
       <use xlink:href="#DejaVuSans-2e" x="63.623047"/>
       <use xlink:href="#DejaVuSans-36" x="95.410156"/>
      </g>
     </g>
    </g>
    <g id="ytick_8">
     <g id="line2d_16">
      <g>
       <use xlink:href="#m3536b3ecb8" x="25.903365" y="22.677428" style="stroke: #000000; stroke-width: 0.8"/>
      </g>
     </g>
     <g id="text_17">
      <!-- 0.7 -->
      <g transform="translate(3.00024 26.476646)scale(0.1 -0.1)">
       <defs>
        <path id="DejaVuSans-37" d="M 525 4666 
L 3525 4666 
L 3525 4397 
L 1831 0 
L 1172 0 
L 2766 4134 
L 525 4134 
L 525 4666 
z
" transform="scale(0.015625)"/>
       </defs>
       <use xlink:href="#DejaVuSans-30"/>
       <use xlink:href="#DejaVuSans-2e" x="63.623047"/>
       <use xlink:href="#DejaVuSans-37" x="95.410156"/>
      </g>
     </g>
    </g>
   </g>
   <g id="line2d_17">
    <path d="M 50.771383 243.743669 
L 52.762816 253.230812 
L 54.754249 261.807013 
L 56.745682 269.518251 
L 58.737114 276.410505 
L 60.728547 282.529752 
L 62.71998 287.921971 
L 64.711413 292.633139 
L 66.702846 296.709234 
L 68.694279 300.196236 
L 70.685712 303.140121 
L 72.677145 305.586868 
L 74.668577 307.582454 
L 76.66001 309.172859 
L 78.651443 310.404061 
L 80.642876 311.322036 
L 82.634309 311.972764 
L 84.625742 312.402222 
L 87.115033 312.697929 
L 90.102182 312.817678 
L 101.552921 312.82687 
L 428.64577 312.715893 
L 431.135061 312.442636 
L 433.126494 312.037604 
L 435.117927 311.417049 
L 437.10936 310.534994 
L 439.100792 309.345461 
L 440.594367 308.223869 
L 442.087942 306.884061 
L 443.581516 305.30664 
L 445.075091 303.472208 
L 446.568666 301.361369 
L 448.06224 298.954726 
L 450.053673 295.252202 
L 452.045106 290.943343 
L 454.036539 285.982169 
L 456.027972 280.322703 
L 458.019405 273.918966 
L 460.010838 266.724981 
L 462.00227 258.69477 
L 463.993703 249.782354 
L 465.985136 239.943371 
L 468.474427 226.397233 
L 471.461577 208.654224 
L 474.946584 186.49128 
L 487.890898 102.399639 
L 490.878047 85.287033 
L 493.367338 72.414402 
L 495.358771 63.218693 
L 497.350204 55.152322 
L 498.843779 49.926647 
L 500.337353 45.472003 
L 501.830928 41.846581 
L 502.826644 39.919048 
L 503.822361 38.403163 
L 504.818077 37.316167 
L 505.813794 36.675303 
L 506.311652 36.527558 
L 506.80951 36.4978 
L 507.307368 36.586815 
L 508.303085 37.113453 
L 509.298801 38.090532 
L 510.294518 39.500811 
L 511.290234 41.327049 
L 512.28595 43.552002 
L 513.779525 47.599309 
L 515.2731 52.446743 
L 516.766674 58.036112 
L 518.758107 66.542148 
L 520.74954 76.125797 
L 523.238831 89.410614 
L 525.728122 103.894275 
L 529.21313 125.672512 
L 534.191712 158.478824 
L 540.663869 200.885375 
L 544.148876 222.097866 
L 546.638167 236.01578 
L 548.131742 243.743669 
L 548.131742 243.743669 
" clip-path="url(#pc5e115ecbd)" style="fill: none; stroke: #440154; stroke-width: 1.5; stroke-linecap: square"/>
   </g>
   <g id="line2d_18">
    <path d="M 50.771383 36.494068 
L 51.269241 36.553516 
L 52.264958 37.022636 
L 53.260674 37.944353 
L 54.25639 39.301425 
L 55.252107 41.076611 
L 56.247823 43.252668 
L 57.741398 47.230671 
L 59.234973 52.013649 
L 60.728547 57.543413 
L 62.71998 65.977519 
L 64.711413 75.497858 
L 67.200704 88.715662 
L 69.689995 103.145778 
L 73.175003 124.871684 
L 78.153585 157.649035 
L 84.625742 200.098488 
L 88.110749 221.371797 
L 90.60004 235.349317 
L 93.089331 248.009329 
L 95.080764 257.092277 
L 97.072197 265.2844 
L 99.06363 272.631675 
L 101.055063 279.180081 
L 103.046496 284.975596 
L 105.037929 290.064197 
L 107.029362 294.491863 
L 109.020794 298.304573 
L 111.012227 301.548303 
L 113.00366 304.269033 
L 114.995093 306.51274 
L 116.986526 308.325402 
L 118.977959 309.752998 
L 120.969392 310.841505 
L 122.960824 311.636902 
L 124.952257 312.185167 
L 127.441548 312.593013 
L 130.428698 312.793988 
L 135.905138 312.82687 
L 469.968002 312.724212 
L 472.457293 312.461844 
L 474.448726 312.068755 
L 476.440159 311.463018 
L 478.431592 310.598654 
L 480.423024 309.429685 
L 481.916599 308.325402 
L 483.410174 307.00452 
L 484.903748 305.447641 
L 486.397323 303.635367 
L 487.890898 301.548303 
L 489.384472 299.167051 
L 491.375905 295.500897 
L 493.367338 291.23128 
L 495.358771 286.312223 
L 497.350204 280.697747 
L 499.341637 274.341875 
L 501.33307 267.198627 
L 503.324502 259.222027 
L 505.315935 250.366095 
L 507.307368 240.58579 
L 509.796659 227.103972 
L 512.783809 209.420367 
L 516.268816 187.30221 
L 529.710988 100.175701 
L 532.200279 85.966495 
L 534.68957 73.023482 
L 536.681003 63.76177 
L 538.672436 55.620774 
L 540.166011 50.333473 
L 541.659585 45.812354 
L 543.15316 42.115608 
L 544.148876 40.137831 
L 545.144593 38.569547 
L 546.140309 37.427998 
L 547.136026 36.730424 
L 548.131742 36.494068 
L 548.131742 36.494068 
" clip-path="url(#pc5e115ecbd)" style="fill: none; stroke: #482173; stroke-width: 1.5; stroke-linecap: square"/>
   </g>
   <g id="line2d_19">
    <path d="M 50.771383 243.743669 
L 53.260674 230.593553 
L 55.749965 216.217654 
L 58.737114 197.727861 
L 63.217838 168.429287 
L 70.685712 119.307375 
L 74.170719 97.974191 
L 76.66001 83.93774 
L 79.149301 71.207892 
L 81.140734 62.145808 
L 83.132167 54.230302 
L 84.625742 49.129091 
L 86.119316 44.80861 
L 87.612891 41.327049 
L 88.608607 39.500811 
L 89.604324 38.090532 
L 90.60004 37.113453 
L 91.595757 36.586815 
L 92.093615 36.4978 
L 92.591473 36.527558 
L 93.58719 36.938891 
L 94.582906 37.804976 
L 95.578623 39.108572 
L 96.574339 40.832436 
L 97.570055 42.959327 
L 99.06363 46.867622 
L 100.557205 51.585742 
L 102.050779 57.055496 
L 104.042212 65.417133 
L 106.033645 74.873623 
L 108.522936 88.02374 
L 111.012227 102.399639 
L 113.999377 120.889432 
L 118.480101 150.188006 
L 125.947974 199.309918 
L 129.432981 220.643102 
L 131.922272 234.679553 
L 134.411563 247.411017 
L 136.402996 256.551169 
L 138.394429 264.797621 
L 140.385862 272.196352 
L 142.377295 278.79334 
L 144.368728 284.634563 
L 146.360161 289.766 
L 148.351594 294.233628 
L 150.343026 298.083425 
L 152.334459 301.361369 
L 154.325892 304.11344 
L 156.317325 306.385613 
L 158.308758 308.223869 
L 160.300191 309.674185 
L 162.291624 310.782538 
L 164.283057 311.594907 
L 166.274489 312.157271 
L 168.76378 312.578699 
L 171.253072 312.771135 
L 175.235937 312.82687 
L 511.290234 312.732106 
L 513.779525 312.480401 
L 515.770958 312.099076 
L 517.762391 311.507976 
L 519.753824 310.661123 
L 521.745257 309.512539 
L 523.238831 308.425431 
L 524.732406 307.12334 
L 526.22598 305.586868 
L 527.719555 303.796618 
L 529.21313 301.733194 
L 530.706704 299.377198 
L 532.698137 295.747234 
L 534.68957 291.516681 
L 536.681003 286.639561 
L 538.672436 281.069895 
L 540.663869 274.761707 
L 542.655302 267.669018 
L 544.646735 259.745849 
L 546.638167 250.946223 
L 548.131742 243.743669 
L 548.131742 243.743669 
" clip-path="url(#pc5e115ecbd)" style="fill: none; stroke: #433e85; stroke-width: 1.5; stroke-linecap: square"/>
   </g>
   <g id="line2d_20">
    <path d="M 50.771383 312.82687 
L 55.252107 312.739583 
L 57.741398 312.498318 
L 59.732831 312.128578 
L 61.724264 311.551936 
L 63.715697 310.722414 
L 65.707129 309.594035 
L 67.200704 308.523967 
L 68.694279 307.240532 
L 70.187853 305.724332 
L 71.681428 303.955972 
L 73.175003 301.916053 
L 74.668577 299.585179 
L 76.66001 295.991225 
L 78.651443 291.799556 
L 80.642876 286.964193 
L 82.634309 281.439159 
L 84.625742 275.178475 
L 86.617175 268.136164 
L 88.608607 260.266247 
L 90.60004 251.522747 
L 92.591473 241.859886 
L 95.080764 228.508729 
L 98.067914 210.946354 
L 101.552921 188.920603 
L 108.025078 146.054384 
L 113.00366 113.823921 
L 115.990809 95.796018 
L 118.480101 81.938383 
L 120.969392 69.427762 
L 122.960824 60.570154 
L 124.952257 52.884988 
L 126.445832 47.973504 
L 127.939407 43.857297 
L 128.935123 41.583717 
L 129.93084 39.706697 
L 130.926556 38.24348 
L 131.922272 37.211308 
L 132.917989 36.627422 
L 133.415847 36.508975 
L 133.913705 36.508975 
L 134.411563 36.627422 
L 135.40728 37.211308 
L 136.402996 38.24348 
L 137.398713 39.706697 
L 138.394429 41.583717 
L 139.390146 43.857297 
L 140.88372 47.973504 
L 142.377295 52.884988 
L 143.87087 58.533558 
L 145.862302 67.110987 
L 147.853735 76.757406 
L 150.343026 90.108564 
L 153.330176 107.670938 
L 156.815183 129.69669 
L 163.28734 172.562909 
L 168.265922 204.793372 
L 171.253072 222.821274 
L 173.742363 236.67891 
L 176.231654 249.194986 
L 178.223087 258.164067 
L 180.214519 266.248069 
L 182.205952 273.492971 
L 184.197385 279.944751 
L 186.188818 285.649387 
L 188.180251 290.652857 
L 190.171684 295.00114 
L 192.163117 298.740212 
L 194.15455 301.916053 
L 196.145982 304.57464 
L 198.137415 306.761952 
L 200.128848 308.523967 
L 202.120281 309.906662 
L 204.111714 310.956017 
L 206.103147 311.718008 
L 208.09458 312.238614 
L 210.583871 312.619968 
L 213.57102 312.801007 
L 219.545319 312.82687 
L 548.131742 312.82687 
L 548.131742 312.82687 
" clip-path="url(#pc5e115ecbd)" style="fill: none; stroke: #38588c; stroke-width: 1.5; stroke-linecap: square"/>
   </g>
   <g id="line2d_21">
    <path d="M 50.771383 312.82687 
L 97.072197 312.715893 
L 99.561488 312.442636 
L 101.552921 312.037604 
L 103.544354 311.417049 
L 105.535787 310.534994 
L 107.52722 309.345461 
L 109.020794 308.223869 
L 110.514369 306.884061 
L 112.007944 305.30664 
L 113.501518 303.472208 
L 114.995093 301.361369 
L 116.488668 298.954726 
L 118.480101 295.252202 
L 120.471533 290.943343 
L 122.462966 285.982169 
L 124.454399 280.322703 
L 126.445832 273.918966 
L 128.437265 266.724981 
L 130.428698 258.69477 
L 132.420131 249.782354 
L 134.411563 239.943371 
L 136.900855 226.397233 
L 139.888004 208.654224 
L 143.373011 186.49128 
L 156.317325 102.399639 
L 159.304474 85.287033 
L 161.793765 72.414402 
L 163.785198 63.218693 
L 165.776631 55.152322 
L 167.270206 49.926647 
L 168.76378 45.472003 
L 170.257355 41.846581 
L 171.253072 39.919048 
L 172.248788 38.403163 
L 173.244504 37.316167 
L 174.240221 36.675303 
L 174.738079 36.527558 
L 175.235937 36.4978 
L 175.733795 36.586815 
L 176.729512 37.113453 
L 177.725228 38.090532 
L 178.720945 39.500811 
L 179.716661 41.327049 
L 180.712378 43.552002 
L 182.205952 47.599309 
L 183.699527 52.446743 
L 185.193102 58.036112 
L 187.184534 66.542148 
L 189.175967 76.125797 
L 191.665258 89.410614 
L 194.15455 103.894275 
L 197.639557 125.672512 
L 202.618139 158.478824 
L 209.090296 200.885375 
L 212.575304 222.097866 
L 215.064595 236.01578 
L 217.553886 248.603982 
L 219.545319 257.629906 
L 221.536751 265.767879 
L 223.528184 273.063878 
L 225.519617 279.563881 
L 227.51105 285.313866 
L 229.502483 290.359812 
L 231.493916 294.747697 
L 233.485349 298.523498 
L 235.476782 301.733194 
L 237.468214 304.422763 
L 239.459647 306.638182 
L 241.45108 308.425431 
L 243.442513 309.830487 
L 245.433946 310.899328 
L 247.425379 311.677932 
L 249.416812 312.212278 
L 251.906103 312.606766 
L 254.893252 312.797638 
L 260.369692 312.82687 
L 548.131742 312.82687 
L 548.131742 312.82687 
" clip-path="url(#pc5e115ecbd)" style="fill: none; stroke: #2d708e; stroke-width: 1.5; stroke-linecap: square"/>
   </g>
   <g id="line2d_22">
    <path d="M 50.771383 312.82687 
L 138.394429 312.724212 
L 140.88372 312.461844 
L 142.875153 312.068755 
L 144.866586 311.463018 
L 146.858019 310.598654 
L 148.849452 309.429685 
L 150.343026 308.325402 
L 151.836601 307.00452 
L 153.330176 305.447641 
L 154.82375 303.635367 
L 156.317325 301.548303 
L 157.8109 299.167051 
L 159.802333 295.500897 
L 161.793765 291.23128 
L 163.785198 286.312223 
L 165.776631 280.697747 
L 167.768064 274.341875 
L 169.759497 267.198627 
L 171.75093 259.222027 
L 173.742363 250.366095 
L 175.733795 240.58579 
L 178.223087 227.103972 
L 181.210236 209.420367 
L 184.695243 187.30221 
L 198.137415 100.175701 
L 200.626706 85.966495 
L 203.115997 73.023482 
L 205.10743 63.76177 
L 207.098863 55.620774 
L 208.592438 50.333473 
L 210.086012 45.812354 
L 211.579587 42.115608 
L 212.575304 40.137831 
L 213.57102 38.569547 
L 214.566736 37.427998 
L 215.562453 36.730424 
L 216.558169 36.494068 
L 217.056028 36.553516 
L 218.051744 37.022636 
L 219.04746 37.944353 
L 220.043177 39.301425 
L 221.038893 41.076611 
L 222.03461 43.252668 
L 223.528184 47.230671 
L 225.021759 52.013649 
L 226.515334 57.543413 
L 228.506767 65.977519 
L 230.498199 75.497858 
L 232.98749 88.715662 
L 235.476782 103.145778 
L 238.961789 124.871684 
L 243.940371 157.649035 
L 250.412528 200.098488 
L 253.897536 221.371797 
L 256.386827 235.349317 
L 258.876118 248.009329 
L 260.867551 257.092277 
L 262.858984 265.2844 
L 264.850416 272.631675 
L 266.841849 279.180081 
L 268.833282 284.975596 
L 270.824715 290.064197 
L 272.816148 294.491863 
L 274.807581 298.304573 
L 276.799014 301.548303 
L 278.790446 304.269033 
L 280.781879 306.51274 
L 282.773312 308.325402 
L 284.764745 309.752998 
L 286.756178 310.841505 
L 288.747611 311.636902 
L 290.739044 312.185167 
L 293.228335 312.593013 
L 296.215484 312.793988 
L 301.691924 312.82687 
L 548.131742 312.82687 
L 548.131742 312.82687 
" clip-path="url(#pc5e115ecbd)" style="fill: none; stroke: #25858e; stroke-width: 1.5; stroke-linecap: square"/>
   </g>
   <g id="line2d_23">
    <path d="M 50.771383 312.82687 
L 179.716661 312.732106 
L 182.205952 312.480401 
L 184.197385 312.099076 
L 186.188818 311.507976 
L 188.180251 310.661123 
L 190.171684 309.512539 
L 191.665258 308.425431 
L 193.158833 307.12334 
L 194.652408 305.586868 
L 196.145982 303.796618 
L 197.639557 301.733194 
L 199.133132 299.377198 
L 201.124565 295.747234 
L 203.115997 291.516681 
L 205.10743 286.639561 
L 207.098863 281.069895 
L 209.090296 274.761707 
L 211.081729 267.669018 
L 213.073162 259.745849 
L 215.064595 250.946223 
L 217.056028 241.22464 
L 219.545319 227.807815 
L 222.532468 210.184421 
L 226.017475 188.111996 
L 232.489632 145.229141 
L 236.970356 116.163331 
L 239.957506 97.974191 
L 242.446797 83.93774 
L 244.936088 71.207892 
L 246.927521 62.145808 
L 248.918953 54.230302 
L 250.412528 49.129091 
L 251.906103 44.80861 
L 253.399677 41.327049 
L 254.395394 39.500811 
L 255.39111 38.090532 
L 256.386827 37.113453 
L 257.382543 36.586815 
L 257.880401 36.4978 
L 258.37826 36.527558 
L 259.373976 36.938891 
L 260.369692 37.804976 
L 261.365409 39.108572 
L 262.361125 40.832436 
L 263.356842 42.959327 
L 264.850416 46.867622 
L 266.343991 51.585742 
L 267.837566 57.055496 
L 269.828999 65.417133 
L 271.820431 74.873623 
L 274.309723 88.02374 
L 276.799014 102.399639 
L 279.786163 120.889432 
L 284.266887 150.188006 
L 291.73476 199.309918 
L 295.219768 220.643102 
L 297.709059 234.679553 
L 300.19835 247.411017 
L 302.189783 256.551169 
L 304.181216 264.797621 
L 306.172648 272.196352 
L 308.164081 278.79334 
L 310.155514 284.634563 
L 312.146947 289.766 
L 314.13838 294.233628 
L 316.129813 298.083425 
L 318.121246 301.361369 
L 320.112679 304.11344 
L 322.104111 306.385613 
L 324.095544 308.223869 
L 326.086977 309.674185 
L 328.07841 310.782538 
L 330.069843 311.594907 
L 332.061276 312.157271 
L 334.550567 312.578699 
L 337.039858 312.771135 
L 341.022724 312.82687 
L 548.131742 312.82687 
L 548.131742 312.82687 
" clip-path="url(#pc5e115ecbd)" style="fill: none; stroke: #1e9b8a; stroke-width: 1.5; stroke-linecap: square"/>
   </g>
   <g id="line2d_24">
    <path d="M 50.771383 312.82687 
L 221.038893 312.739583 
L 223.528184 312.498318 
L 225.519617 312.128578 
L 227.51105 311.551936 
L 229.502483 310.722414 
L 231.493916 309.594035 
L 232.98749 308.523967 
L 234.481065 307.240532 
L 235.97464 305.724332 
L 237.468214 303.955972 
L 238.961789 301.916053 
L 240.455364 299.585179 
L 242.446797 295.991225 
L 244.438229 291.799556 
L 246.429662 286.964193 
L 248.421095 281.439159 
L 250.412528 275.178475 
L 252.403961 268.136164 
L 254.395394 260.266247 
L 256.386827 251.522747 
L 258.37826 241.859886 
L 260.867551 228.508729 
L 263.8547 210.946354 
L 267.339707 188.920603 
L 273.811864 146.054384 
L 278.790446 113.823921 
L 281.777596 95.796018 
L 284.266887 81.938383 
L 286.756178 69.427762 
L 288.747611 60.570154 
L 290.739044 52.884988 
L 292.232618 47.973504 
L 293.726193 43.857297 
L 294.721909 41.583717 
L 295.717626 39.706697 
L 296.713342 38.24348 
L 297.709059 37.211308 
L 298.704775 36.627422 
L 299.202633 36.508975 
L 299.700492 36.508975 
L 300.19835 36.627422 
L 301.194066 37.211308 
L 302.189783 38.24348 
L 303.185499 39.706697 
L 304.181216 41.583717 
L 305.176932 43.857297 
L 306.670507 47.973504 
L 308.164081 52.884988 
L 309.657656 58.533558 
L 311.649089 67.110987 
L 313.640522 76.757406 
L 316.129813 90.108564 
L 319.116962 107.670938 
L 322.60197 129.69669 
L 329.074126 172.562909 
L 334.052709 204.793372 
L 337.039858 222.821274 
L 339.529149 236.67891 
L 342.01844 249.194986 
L 344.009873 258.164067 
L 346.001306 266.248069 
L 347.992739 273.492971 
L 349.984172 279.944751 
L 351.975604 285.649387 
L 353.967037 290.652857 
L 355.95847 295.00114 
L 357.949903 298.740212 
L 359.941336 301.916053 
L 361.932769 304.57464 
L 363.924202 306.761952 
L 365.915635 308.523967 
L 367.907067 309.906662 
L 369.8985 310.956017 
L 371.889933 311.718008 
L 373.881366 312.238614 
L 376.370657 312.619968 
L 379.357806 312.801007 
L 385.332105 312.82687 
L 548.131742 312.82687 
L 548.131742 312.82687 
" clip-path="url(#pc5e115ecbd)" style="fill: none; stroke: #2ab07f; stroke-width: 1.5; stroke-linecap: square"/>
   </g>
   <g id="line2d_25">
    <path d="M 50.771383 312.82687 
L 262.858984 312.715893 
L 265.348275 312.442636 
L 267.339707 312.037604 
L 269.33114 311.417049 
L 271.322573 310.534994 
L 273.314006 309.345461 
L 274.807581 308.223869 
L 276.301155 306.884061 
L 277.79473 305.30664 
L 279.288305 303.472208 
L 280.781879 301.361369 
L 282.275454 298.954726 
L 284.266887 295.252202 
L 286.25832 290.943343 
L 288.249753 285.982169 
L 290.241185 280.322703 
L 292.232618 273.918966 
L 294.224051 266.724981 
L 296.215484 258.69477 
L 298.206917 249.782354 
L 300.19835 239.943371 
L 302.687641 226.397233 
L 305.67479 208.654224 
L 309.159798 186.49128 
L 322.104111 102.399639 
L 325.091261 85.287033 
L 327.580552 72.414402 
L 329.571985 63.218693 
L 331.563418 55.152322 
L 333.056992 49.926647 
L 334.550567 45.472003 
L 336.044141 41.846581 
L 337.039858 39.919048 
L 338.035574 38.403163 
L 339.031291 37.316167 
L 340.027007 36.675303 
L 340.524865 36.527558 
L 341.022724 36.4978 
L 341.520582 36.586815 
L 342.516298 37.113453 
L 343.512015 38.090532 
L 344.507731 39.500811 
L 345.503448 41.327049 
L 346.499164 43.552002 
L 347.992739 47.599309 
L 349.486313 52.446743 
L 350.979888 58.036112 
L 352.971321 66.542148 
L 354.962754 76.125797 
L 357.452045 89.410614 
L 359.941336 103.894275 
L 363.426343 125.672512 
L 368.404926 158.478824 
L 374.877082 200.885375 
L 378.36209 222.097866 
L 380.851381 236.01578 
L 383.340672 248.603982 
L 385.332105 257.629906 
L 387.323538 265.767879 
L 389.314971 273.063878 
L 391.306404 279.563881 
L 393.297836 285.313866 
L 395.289269 290.359812 
L 397.280702 294.747697 
L 399.272135 298.523498 
L 401.263568 301.733194 
L 403.255001 304.422763 
L 405.246434 306.638182 
L 407.237867 308.425431 
L 409.229299 309.830487 
L 411.220732 310.899328 
L 413.212165 311.677932 
L 415.203598 312.212278 
L 417.692889 312.606766 
L 420.680038 312.797638 
L 426.156479 312.82687 
L 548.131742 312.82687 
L 548.131742 312.82687 
" clip-path="url(#pc5e115ecbd)" style="fill: none; stroke: #52c569; stroke-width: 1.5; stroke-linecap: square"/>
   </g>
   <g id="line2d_26">
    <path d="M 50.771383 312.82687 
L 304.181216 312.724212 
L 306.670507 312.461844 
L 308.66194 312.068755 
L 310.653372 311.463018 
L 312.644805 310.598654 
L 314.636238 309.429685 
L 316.129813 308.325402 
L 317.623387 307.00452 
L 319.116962 305.447641 
L 320.610537 303.635367 
L 322.104111 301.548303 
L 323.597686 299.167051 
L 325.589119 295.500897 
L 327.580552 291.23128 
L 329.571985 286.312223 
L 331.563418 280.697747 
L 333.55485 274.341875 
L 335.546283 267.198627 
L 337.537716 259.222027 
L 339.529149 250.366095 
L 341.520582 240.58579 
L 344.009873 227.103972 
L 346.997022 209.420367 
L 350.48203 187.30221 
L 363.924202 100.175701 
L 366.413493 85.966495 
L 368.902784 73.023482 
L 370.894217 63.76177 
L 372.88565 55.620774 
L 374.379224 50.333473 
L 375.872799 45.812354 
L 377.366374 42.115608 
L 378.36209 40.137831 
L 379.357806 38.569547 
L 380.353523 37.427998 
L 381.349239 36.730424 
L 382.344956 36.494068 
L 382.842814 36.553516 
L 383.83853 37.022636 
L 384.834247 37.944353 
L 385.829963 39.301425 
L 386.82568 41.076611 
L 387.821396 43.252668 
L 389.314971 47.230671 
L 390.808545 52.013649 
L 392.30212 57.543413 
L 394.293553 65.977519 
L 396.284986 75.497858 
L 398.774277 88.715662 
L 401.263568 103.145778 
L 404.748575 124.871684 
L 409.727158 157.649035 
L 416.199314 200.098488 
L 419.684322 221.371797 
L 422.173613 235.349317 
L 424.662904 248.009329 
L 426.654337 257.092277 
L 428.64577 265.2844 
L 430.637203 272.631675 
L 432.628636 279.180081 
L 434.620068 284.975596 
L 436.611501 290.064197 
L 438.602934 294.491863 
L 440.594367 298.304573 
L 442.5858 301.548303 
L 444.577233 304.269033 
L 446.568666 306.51274 
L 448.560099 308.325402 
L 450.551531 309.752998 
L 452.542964 310.841505 
L 454.534397 311.636902 
L 456.52583 312.185167 
L 459.015121 312.593013 
L 462.00227 312.793988 
L 467.478711 312.82687 
L 548.131742 312.82687 
L 548.131742 312.82687 
" clip-path="url(#pc5e115ecbd)" style="fill: none; stroke: #86d549; stroke-width: 1.5; stroke-linecap: square"/>
   </g>
   <g id="line2d_27">
    <path d="M 50.771383 312.82687 
L 345.503448 312.732106 
L 347.992739 312.480401 
L 349.984172 312.099076 
L 351.975604 311.507976 
L 353.967037 310.661123 
L 355.95847 309.512539 
L 357.452045 308.425431 
L 358.945619 307.12334 
L 360.439194 305.586868 
L 361.932769 303.796618 
L 363.426343 301.733194 
L 364.919918 299.377198 
L 366.911351 295.747234 
L 368.902784 291.516681 
L 370.894217 286.639561 
L 372.88565 281.069895 
L 374.877082 274.761707 
L 376.868515 267.669018 
L 378.859948 259.745849 
L 380.851381 250.946223 
L 382.842814 241.22464 
L 385.332105 227.807815 
L 388.319254 210.184421 
L 391.804262 188.111996 
L 398.276419 145.229141 
L 402.757143 116.163331 
L 405.744292 97.974191 
L 408.233583 83.93774 
L 410.722874 71.207892 
L 412.714307 62.145808 
L 414.70574 54.230302 
L 416.199314 49.129091 
L 417.692889 44.80861 
L 419.186464 41.327049 
L 420.18218 39.500811 
L 421.177897 38.090532 
L 422.173613 37.113453 
L 423.16933 36.586815 
L 423.667188 36.4978 
L 424.165046 36.527558 
L 425.160762 36.938891 
L 426.156479 37.804976 
L 427.152195 39.108572 
L 428.147912 40.832436 
L 429.143628 42.959327 
L 430.637203 46.867622 
L 432.130777 51.585742 
L 433.624352 57.055496 
L 435.615785 65.417133 
L 437.607218 74.873623 
L 440.096509 88.02374 
L 442.5858 102.399639 
L 445.572949 120.889432 
L 450.053673 150.188006 
L 457.521546 199.309918 
L 461.006554 220.643102 
L 463.495845 234.679553 
L 465.985136 247.411017 
L 467.976569 256.551169 
L 469.968002 264.797621 
L 471.959435 272.196352 
L 473.950868 278.79334 
L 475.942301 284.634563 
L 477.933733 289.766 
L 479.925166 294.233628 
L 481.916599 298.083425 
L 483.908032 301.361369 
L 485.899465 304.11344 
L 487.890898 306.385613 
L 489.882331 308.223869 
L 491.873763 309.674185 
L 493.865196 310.782538 
L 495.856629 311.594907 
L 497.848062 312.157271 
L 500.337353 312.578699 
L 502.826644 312.771135 
L 506.80951 312.82687 
L 548.131742 312.82687 
L 548.131742 312.82687 
" clip-path="url(#pc5e115ecbd)" style="fill: none; stroke: #c2df23; stroke-width: 1.5; stroke-linecap: square"/>
   </g>
   <g id="line2d_28">
    <path d="M 50.771383 312.82687 
L 386.82568 312.739583 
L 389.314971 312.498318 
L 391.306404 312.128578 
L 393.297836 311.551936 
L 395.289269 310.722414 
L 397.280702 309.594035 
L 398.774277 308.523967 
L 400.267852 307.240532 
L 401.761426 305.724332 
L 403.255001 303.955972 
L 404.748575 301.916053 
L 406.24215 299.585179 
L 408.233583 295.991225 
L 410.225016 291.799556 
L 412.216449 286.964193 
L 414.207882 281.439159 
L 416.199314 275.178475 
L 418.190747 268.136164 
L 420.18218 260.266247 
L 422.173613 251.522747 
L 424.165046 241.859886 
L 426.654337 228.508729 
L 429.641486 210.946354 
L 433.126494 188.920603 
L 439.598651 146.054384 
L 444.577233 113.823921 
L 447.564382 95.796018 
L 450.053673 81.938383 
L 452.542964 69.427762 
L 454.534397 60.570154 
L 456.52583 52.884988 
L 458.019405 47.973504 
L 459.512979 43.857297 
L 460.508696 41.583717 
L 461.504412 39.706697 
L 462.500129 38.24348 
L 463.495845 37.211308 
L 464.491562 36.627422 
L 464.98942 36.508975 
L 465.487278 36.508975 
L 465.985136 36.627422 
L 466.980853 37.211308 
L 467.976569 38.24348 
L 468.972285 39.706697 
L 469.968002 41.583717 
L 470.963718 43.857297 
L 472.457293 47.973504 
L 473.950868 52.884988 
L 475.444442 58.533558 
L 477.435875 67.110987 
L 479.427308 76.757406 
L 481.916599 90.108564 
L 484.903748 107.670938 
L 488.388756 129.69669 
L 494.860913 172.562909 
L 499.839495 204.793372 
L 502.826644 222.821274 
L 505.315935 236.67891 
L 507.805226 249.194986 
L 509.796659 258.164067 
L 511.788092 266.248069 
L 513.779525 273.492971 
L 515.770958 279.944751 
L 517.762391 285.649387 
L 519.753824 290.652857 
L 521.745257 295.00114 
L 523.736689 298.740212 
L 525.728122 301.916053 
L 527.719555 304.57464 
L 529.710988 306.761952 
L 531.702421 308.523967 
L 533.693854 309.906662 
L 535.685287 310.956017 
L 537.676719 311.718008 
L 539.668152 312.238614 
L 542.157443 312.619968 
L 545.144593 312.801007 
L 548.131742 312.82687 
L 548.131742 312.82687 
" clip-path="url(#pc5e115ecbd)" style="fill: none; stroke: #fde725; stroke-width: 1.5; stroke-linecap: square"/>
   </g>
   <g id="patch_3">
    <path d="M 25.903365 326.64351 
L 25.903365 22.677427 
" style="fill: none; stroke: #000000; stroke-width: 0.8; stroke-linejoin: miter; stroke-linecap: square"/>
   </g>
   <g id="patch_4">
    <path d="M 572.99976 326.64351 
L 572.99976 22.677427 
" style="fill: none; stroke: #000000; stroke-width: 0.8; stroke-linejoin: miter; stroke-linecap: square"/>
   </g>
   <g id="patch_5">
    <path d="M 25.903365 326.64351 
L 572.99976 326.64351 
" style="fill: none; stroke: #000000; stroke-width: 0.8; stroke-linejoin: miter; stroke-linecap: square"/>
   </g>
   <g id="patch_6">
    <path d="M 25.903365 22.677427 
L 572.99976 22.677427 
" style="fill: none; stroke: #000000; stroke-width: 0.8; stroke-linejoin: miter; stroke-linecap: square"/>
   </g>
   <g id="text_18">
    <!-- Periodic spline-based encoding 'hour' -->
    <g transform="translate(131.413125 16.677427)scale(0.18 -0.18)">
     <defs>
      <path id="DejaVuSans-50" d="M 1259 4147 
L 1259 2394 
L 2053 2394 
Q 2494 2394 2734 2622 
Q 2975 2850 2975 3272 
Q 2975 3691 2734 3919 
Q 2494 4147 2053 4147 
L 1259 4147 
z
M 628 4666 
L 2053 4666 
Q 2838 4666 3239 4311 
Q 3641 3956 3641 3272 
Q 3641 2581 3239 2228 
Q 2838 1875 2053 1875 
L 1259 1875 
L 1259 0 
L 628 0 
L 628 4666 
z
" transform="scale(0.015625)"/>
      <path id="DejaVuSans-65" d="M 3597 1894 
L 3597 1613 
L 953 1613 
Q 991 1019 1311 708 
Q 1631 397 2203 397 
Q 2534 397 2845 478 
Q 3156 559 3463 722 
L 3463 178 
Q 3153 47 2828 -22 
Q 2503 -91 2169 -91 
Q 1331 -91 842 396 
Q 353 884 353 1716 
Q 353 2575 817 3079 
Q 1281 3584 2069 3584 
Q 2775 3584 3186 3129 
Q 3597 2675 3597 1894 
z
M 3022 2063 
Q 3016 2534 2758 2815 
Q 2500 3097 2075 3097 
Q 1594 3097 1305 2825 
Q 1016 2553 972 2059 
L 3022 2063 
z
" transform="scale(0.015625)"/>
      <path id="DejaVuSans-69" d="M 603 3500 
L 1178 3500 
L 1178 0 
L 603 0 
L 603 3500 
z
M 603 4863 
L 1178 4863 
L 1178 4134 
L 603 4134 
L 603 4863 
z
" transform="scale(0.015625)"/>
      <path id="DejaVuSans-64" d="M 2906 2969 
L 2906 4863 
L 3481 4863 
L 3481 0 
L 2906 0 
L 2906 525 
Q 2725 213 2448 61 
Q 2172 -91 1784 -91 
Q 1150 -91 751 415 
Q 353 922 353 1747 
Q 353 2572 751 3078 
Q 1150 3584 1784 3584 
Q 2172 3584 2448 3432 
Q 2725 3281 2906 2969 
z
M 947 1747 
Q 947 1113 1208 752 
Q 1469 391 1925 391 
Q 2381 391 2643 752 
Q 2906 1113 2906 1747 
Q 2906 2381 2643 2742 
Q 2381 3103 1925 3103 
Q 1469 3103 1208 2742 
Q 947 2381 947 1747 
z
" transform="scale(0.015625)"/>
      <path id="DejaVuSans-63" d="M 3122 3366 
L 3122 2828 
Q 2878 2963 2633 3030 
Q 2388 3097 2138 3097 
Q 1578 3097 1268 2742 
Q 959 2388 959 1747 
Q 959 1106 1268 751 
Q 1578 397 2138 397 
Q 2388 397 2633 464 
Q 2878 531 3122 666 
L 3122 134 
Q 2881 22 2623 -34 
Q 2366 -91 2075 -91 
Q 1284 -91 818 406 
Q 353 903 353 1747 
Q 353 2603 823 3093 
Q 1294 3584 2113 3584 
Q 2378 3584 2631 3529 
Q 2884 3475 3122 3366 
z
" transform="scale(0.015625)"/>
      <path id="DejaVuSans-20" transform="scale(0.015625)"/>
      <path id="DejaVuSans-73" d="M 2834 3397 
L 2834 2853 
Q 2591 2978 2328 3040 
Q 2066 3103 1784 3103 
Q 1356 3103 1142 2972 
Q 928 2841 928 2578 
Q 928 2378 1081 2264 
Q 1234 2150 1697 2047 
L 1894 2003 
Q 2506 1872 2764 1633 
Q 3022 1394 3022 966 
Q 3022 478 2636 193 
Q 2250 -91 1575 -91 
Q 1294 -91 989 -36 
Q 684 19 347 128 
L 347 722 
Q 666 556 975 473 
Q 1284 391 1588 391 
Q 1994 391 2212 530 
Q 2431 669 2431 922 
Q 2431 1156 2273 1281 
Q 2116 1406 1581 1522 
L 1381 1569 
Q 847 1681 609 1914 
Q 372 2147 372 2553 
Q 372 3047 722 3315 
Q 1072 3584 1716 3584 
Q 2034 3584 2315 3537 
Q 2597 3491 2834 3397 
z
" transform="scale(0.015625)"/>
      <path id="DejaVuSans-70" d="M 1159 525 
L 1159 -1331 
L 581 -1331 
L 581 3500 
L 1159 3500 
L 1159 2969 
Q 1341 3281 1617 3432 
Q 1894 3584 2278 3584 
Q 2916 3584 3314 3078 
Q 3713 2572 3713 1747 
Q 3713 922 3314 415 
Q 2916 -91 2278 -91 
Q 1894 -91 1617 61 
Q 1341 213 1159 525 
z
M 3116 1747 
Q 3116 2381 2855 2742 
Q 2594 3103 2138 3103 
Q 1681 3103 1420 2742 
Q 1159 2381 1159 1747 
Q 1159 1113 1420 752 
Q 1681 391 2138 391 
Q 2594 391 2855 752 
Q 3116 1113 3116 1747 
z
" transform="scale(0.015625)"/>
      <path id="DejaVuSans-6c" d="M 603 4863 
L 1178 4863 
L 1178 0 
L 603 0 
L 603 4863 
z
" transform="scale(0.015625)"/>
      <path id="DejaVuSans-6e" d="M 3513 2113 
L 3513 0 
L 2938 0 
L 2938 2094 
Q 2938 2591 2744 2837 
Q 2550 3084 2163 3084 
Q 1697 3084 1428 2787 
Q 1159 2491 1159 1978 
L 1159 0 
L 581 0 
L 581 3500 
L 1159 3500 
L 1159 2956 
Q 1366 3272 1645 3428 
Q 1925 3584 2291 3584 
Q 2894 3584 3203 3211 
Q 3513 2838 3513 2113 
z
" transform="scale(0.015625)"/>
      <path id="DejaVuSans-2d" d="M 313 2009 
L 1997 2009 
L 1997 1497 
L 313 1497 
L 313 2009 
z
" transform="scale(0.015625)"/>
      <path id="DejaVuSans-62" d="M 3116 1747 
Q 3116 2381 2855 2742 
Q 2594 3103 2138 3103 
Q 1681 3103 1420 2742 
Q 1159 2381 1159 1747 
Q 1159 1113 1420 752 
Q 1681 391 2138 391 
Q 2594 391 2855 752 
Q 3116 1113 3116 1747 
z
M 1159 2969 
Q 1341 3281 1617 3432 
Q 1894 3584 2278 3584 
Q 2916 3584 3314 3078 
Q 3713 2572 3713 1747 
Q 3713 922 3314 415 
Q 2916 -91 2278 -91 
Q 1894 -91 1617 61 
Q 1341 213 1159 525 
L 1159 0 
L 581 0 
L 581 4863 
L 1159 4863 
L 1159 2969 
z
" transform="scale(0.015625)"/>
      <path id="DejaVuSans-61" d="M 2194 1759 
Q 1497 1759 1228 1600 
Q 959 1441 959 1056 
Q 959 750 1161 570 
Q 1363 391 1709 391 
Q 2188 391 2477 730 
Q 2766 1069 2766 1631 
L 2766 1759 
L 2194 1759 
z
M 3341 1997 
L 3341 0 
L 2766 0 
L 2766 531 
Q 2569 213 2275 61 
Q 1981 -91 1556 -91 
Q 1019 -91 701 211 
Q 384 513 384 1019 
Q 384 1609 779 1909 
Q 1175 2209 1959 2209 
L 2766 2209 
L 2766 2266 
Q 2766 2663 2505 2880 
Q 2244 3097 1772 3097 
Q 1472 3097 1187 3025 
Q 903 2953 641 2809 
L 641 3341 
Q 956 3463 1253 3523 
Q 1550 3584 1831 3584 
Q 2591 3584 2966 3190 
Q 3341 2797 3341 1997 
z
" transform="scale(0.015625)"/>
      <path id="DejaVuSans-67" d="M 2906 1791 
Q 2906 2416 2648 2759 
Q 2391 3103 1925 3103 
Q 1463 3103 1205 2759 
Q 947 2416 947 1791 
Q 947 1169 1205 825 
Q 1463 481 1925 481 
Q 2391 481 2648 825 
Q 2906 1169 2906 1791 
z
M 3481 434 
Q 3481 -459 3084 -895 
Q 2688 -1331 1869 -1331 
Q 1566 -1331 1297 -1286 
Q 1028 -1241 775 -1147 
L 775 -588 
Q 1028 -725 1275 -790 
Q 1522 -856 1778 -856 
Q 2344 -856 2625 -561 
Q 2906 -266 2906 331 
L 2906 616 
Q 2728 306 2450 153 
Q 2172 0 1784 0 
Q 1141 0 747 490 
Q 353 981 353 1791 
Q 353 2603 747 3093 
Q 1141 3584 1784 3584 
Q 2172 3584 2450 3431 
Q 2728 3278 2906 2969 
L 2906 3500 
L 3481 3500 
L 3481 434 
z
" transform="scale(0.015625)"/>
      <path id="DejaVuSans-27" d="M 1147 4666 
L 1147 2931 
L 616 2931 
L 616 4666 
L 1147 4666 
z
" transform="scale(0.015625)"/>
     </defs>
     <use xlink:href="#DejaVuSans-50"/>
     <use xlink:href="#DejaVuSans-65" x="56.677734"/>
     <use xlink:href="#DejaVuSans-72" x="118.201172"/>
     <use xlink:href="#DejaVuSans-69" x="159.314453"/>
     <use xlink:href="#DejaVuSans-6f" x="187.097656"/>
     <use xlink:href="#DejaVuSans-64" x="248.279297"/>
     <use xlink:href="#DejaVuSans-69" x="311.755859"/>
     <use xlink:href="#DejaVuSans-63" x="339.539062"/>
     <use xlink:href="#DejaVuSans-20" x="394.519531"/>
     <use xlink:href="#DejaVuSans-73" x="426.306641"/>
     <use xlink:href="#DejaVuSans-70" x="478.40625"/>
     <use xlink:href="#DejaVuSans-6c" x="541.882812"/>
     <use xlink:href="#DejaVuSans-69" x="569.666016"/>
     <use xlink:href="#DejaVuSans-6e" x="597.449219"/>
     <use xlink:href="#DejaVuSans-65" x="660.828125"/>
     <use xlink:href="#DejaVuSans-2d" x="722.351562"/>
     <use xlink:href="#DejaVuSans-62" x="758.435547"/>
     <use xlink:href="#DejaVuSans-61" x="821.912109"/>
     <use xlink:href="#DejaVuSans-73" x="883.191406"/>
     <use xlink:href="#DejaVuSans-65" x="935.291016"/>
     <use xlink:href="#DejaVuSans-64" x="996.814453"/>
     <use xlink:href="#DejaVuSans-20" x="1060.291016"/>
     <use xlink:href="#DejaVuSans-65" x="1092.078125"/>
     <use xlink:href="#DejaVuSans-6e" x="1153.601562"/>
     <use xlink:href="#DejaVuSans-63" x="1216.980469"/>
     <use xlink:href="#DejaVuSans-6f" x="1271.960938"/>
     <use xlink:href="#DejaVuSans-64" x="1333.142578"/>
     <use xlink:href="#DejaVuSans-69" x="1396.619141"/>
     <use xlink:href="#DejaVuSans-6e" x="1424.402344"/>
     <use xlink:href="#DejaVuSans-67" x="1487.78125"/>
     <use xlink:href="#DejaVuSans-20" x="1551.257812"/>
     <use xlink:href="#DejaVuSans-27" x="1583.044922"/>
     <use xlink:href="#DejaVuSans-68" x="1610.535156"/>
     <use xlink:href="#DejaVuSans-6f" x="1673.914062"/>
     <use xlink:href="#DejaVuSans-75" x="1735.095703"/>
     <use xlink:href="#DejaVuSans-72" x="1798.474609"/>
     <use xlink:href="#DejaVuSans-27" x="1839.587891"/>
    </g>
   </g>
   <g id="legend_1">
    <g id="patch_7">
     <path d="M 32.903365 265.897969 
L 112.233053 265.897969 
Q 114.233053 265.897969 114.233053 263.897969 
L 114.233053 85.422969 
Q 114.233053 83.422969 112.233053 83.422969 
L 32.903365 83.422969 
Q 30.903365 83.422969 30.903365 85.422969 
L 30.903365 263.897969 
Q 30.903365 265.897969 32.903365 265.897969 
z
" style="fill: #ffffff; opacity: 0.8; stroke: #cccccc; stroke-linejoin: miter"/>
    </g>
    <g id="line2d_29">
     <path d="M 34.903365 91.521406 
L 44.903365 91.521406 
L 54.903365 91.521406 
" style="fill: none; stroke: #440154; stroke-width: 1.5; stroke-linecap: square"/>
    </g>
    <g id="text_19">
     <!-- spline_0 -->
     <g transform="translate(62.903365 95.021406)scale(0.1 -0.1)">
      <defs>
       <path id="DejaVuSans-5f" d="M 3263 -1063 
L 3263 -1509 
L -63 -1509 
L -63 -1063 
L 3263 -1063 
z
" transform="scale(0.015625)"/>
      </defs>
      <use xlink:href="#DejaVuSans-73"/>
      <use xlink:href="#DejaVuSans-70" x="52.099609"/>
      <use xlink:href="#DejaVuSans-6c" x="115.576172"/>
      <use xlink:href="#DejaVuSans-69" x="143.359375"/>
      <use xlink:href="#DejaVuSans-6e" x="171.142578"/>
      <use xlink:href="#DejaVuSans-65" x="234.521484"/>
      <use xlink:href="#DejaVuSans-5f" x="296.044922"/>
      <use xlink:href="#DejaVuSans-30" x="346.044922"/>
     </g>
    </g>
    <g id="line2d_30">
     <path d="M 34.903365 106.477656 
L 44.903365 106.477656 
L 54.903365 106.477656 
" style="fill: none; stroke: #482173; stroke-width: 1.5; stroke-linecap: square"/>
    </g>
    <g id="text_20">
     <!-- spline_1 -->
     <g transform="translate(62.903365 109.977656)scale(0.1 -0.1)">
      <use xlink:href="#DejaVuSans-73"/>
      <use xlink:href="#DejaVuSans-70" x="52.099609"/>
      <use xlink:href="#DejaVuSans-6c" x="115.576172"/>
      <use xlink:href="#DejaVuSans-69" x="143.359375"/>
      <use xlink:href="#DejaVuSans-6e" x="171.142578"/>
      <use xlink:href="#DejaVuSans-65" x="234.521484"/>
      <use xlink:href="#DejaVuSans-5f" x="296.044922"/>
      <use xlink:href="#DejaVuSans-31" x="346.044922"/>
     </g>
    </g>
    <g id="line2d_31">
     <path d="M 34.903365 121.433906 
L 44.903365 121.433906 
L 54.903365 121.433906 
" style="fill: none; stroke: #433e85; stroke-width: 1.5; stroke-linecap: square"/>
    </g>
    <g id="text_21">
     <!-- spline_2 -->
     <g transform="translate(62.903365 124.933906)scale(0.1 -0.1)">
      <use xlink:href="#DejaVuSans-73"/>
      <use xlink:href="#DejaVuSans-70" x="52.099609"/>
      <use xlink:href="#DejaVuSans-6c" x="115.576172"/>
      <use xlink:href="#DejaVuSans-69" x="143.359375"/>
      <use xlink:href="#DejaVuSans-6e" x="171.142578"/>
      <use xlink:href="#DejaVuSans-65" x="234.521484"/>
      <use xlink:href="#DejaVuSans-5f" x="296.044922"/>
      <use xlink:href="#DejaVuSans-32" x="346.044922"/>
     </g>
    </g>
    <g id="line2d_32">
     <path d="M 34.903365 136.390156 
L 44.903365 136.390156 
L 54.903365 136.390156 
" style="fill: none; stroke: #38588c; stroke-width: 1.5; stroke-linecap: square"/>
    </g>
    <g id="text_22">
     <!-- spline_3 -->
     <g transform="translate(62.903365 139.890156)scale(0.1 -0.1)">
      <use xlink:href="#DejaVuSans-73"/>
      <use xlink:href="#DejaVuSans-70" x="52.099609"/>
      <use xlink:href="#DejaVuSans-6c" x="115.576172"/>
      <use xlink:href="#DejaVuSans-69" x="143.359375"/>
      <use xlink:href="#DejaVuSans-6e" x="171.142578"/>
      <use xlink:href="#DejaVuSans-65" x="234.521484"/>
      <use xlink:href="#DejaVuSans-5f" x="296.044922"/>
      <use xlink:href="#DejaVuSans-33" x="346.044922"/>
     </g>
    </g>
    <g id="line2d_33">
     <path d="M 34.903365 151.346406 
L 44.903365 151.346406 
L 54.903365 151.346406 
" style="fill: none; stroke: #2d708e; stroke-width: 1.5; stroke-linecap: square"/>
    </g>
    <g id="text_23">
     <!-- spline_4 -->
     <g transform="translate(62.903365 154.846406)scale(0.1 -0.1)">
      <use xlink:href="#DejaVuSans-73"/>
      <use xlink:href="#DejaVuSans-70" x="52.099609"/>
      <use xlink:href="#DejaVuSans-6c" x="115.576172"/>
      <use xlink:href="#DejaVuSans-69" x="143.359375"/>
      <use xlink:href="#DejaVuSans-6e" x="171.142578"/>
      <use xlink:href="#DejaVuSans-65" x="234.521484"/>
      <use xlink:href="#DejaVuSans-5f" x="296.044922"/>
      <use xlink:href="#DejaVuSans-34" x="346.044922"/>
     </g>
    </g>
    <g id="line2d_34">
     <path d="M 34.903365 166.302656 
L 44.903365 166.302656 
L 54.903365 166.302656 
" style="fill: none; stroke: #25858e; stroke-width: 1.5; stroke-linecap: square"/>
    </g>
    <g id="text_24">
     <!-- spline_5 -->
     <g transform="translate(62.903365 169.802656)scale(0.1 -0.1)">
      <use xlink:href="#DejaVuSans-73"/>
      <use xlink:href="#DejaVuSans-70" x="52.099609"/>
      <use xlink:href="#DejaVuSans-6c" x="115.576172"/>
      <use xlink:href="#DejaVuSans-69" x="143.359375"/>
      <use xlink:href="#DejaVuSans-6e" x="171.142578"/>
      <use xlink:href="#DejaVuSans-65" x="234.521484"/>
      <use xlink:href="#DejaVuSans-5f" x="296.044922"/>
      <use xlink:href="#DejaVuSans-35" x="346.044922"/>
     </g>
    </g>
    <g id="line2d_35">
     <path d="M 34.903365 181.258906 
L 44.903365 181.258906 
L 54.903365 181.258906 
" style="fill: none; stroke: #1e9b8a; stroke-width: 1.5; stroke-linecap: square"/>
    </g>
    <g id="text_25">
     <!-- spline_6 -->
     <g transform="translate(62.903365 184.758906)scale(0.1 -0.1)">
      <use xlink:href="#DejaVuSans-73"/>
      <use xlink:href="#DejaVuSans-70" x="52.099609"/>
      <use xlink:href="#DejaVuSans-6c" x="115.576172"/>
      <use xlink:href="#DejaVuSans-69" x="143.359375"/>
      <use xlink:href="#DejaVuSans-6e" x="171.142578"/>
      <use xlink:href="#DejaVuSans-65" x="234.521484"/>
      <use xlink:href="#DejaVuSans-5f" x="296.044922"/>
      <use xlink:href="#DejaVuSans-36" x="346.044922"/>
     </g>
    </g>
    <g id="line2d_36">
     <path d="M 34.903365 196.215156 
L 44.903365 196.215156 
L 54.903365 196.215156 
" style="fill: none; stroke: #2ab07f; stroke-width: 1.5; stroke-linecap: square"/>
    </g>
    <g id="text_26">
     <!-- spline_7 -->
     <g transform="translate(62.903365 199.715156)scale(0.1 -0.1)">
      <use xlink:href="#DejaVuSans-73"/>
      <use xlink:href="#DejaVuSans-70" x="52.099609"/>
      <use xlink:href="#DejaVuSans-6c" x="115.576172"/>
      <use xlink:href="#DejaVuSans-69" x="143.359375"/>
      <use xlink:href="#DejaVuSans-6e" x="171.142578"/>
      <use xlink:href="#DejaVuSans-65" x="234.521484"/>
      <use xlink:href="#DejaVuSans-5f" x="296.044922"/>
      <use xlink:href="#DejaVuSans-37" x="346.044922"/>
     </g>
    </g>
    <g id="line2d_37">
     <path d="M 34.903365 211.171406 
L 44.903365 211.171406 
L 54.903365 211.171406 
" style="fill: none; stroke: #52c569; stroke-width: 1.5; stroke-linecap: square"/>
    </g>
    <g id="text_27">
     <!-- spline_8 -->
     <g transform="translate(62.903365 214.671406)scale(0.1 -0.1)">
      <use xlink:href="#DejaVuSans-73"/>
      <use xlink:href="#DejaVuSans-70" x="52.099609"/>
      <use xlink:href="#DejaVuSans-6c" x="115.576172"/>
      <use xlink:href="#DejaVuSans-69" x="143.359375"/>
      <use xlink:href="#DejaVuSans-6e" x="171.142578"/>
      <use xlink:href="#DejaVuSans-65" x="234.521484"/>
      <use xlink:href="#DejaVuSans-5f" x="296.044922"/>
      <use xlink:href="#DejaVuSans-38" x="346.044922"/>
     </g>
    </g>
    <g id="line2d_38">
     <path d="M 34.903365 226.127656 
L 44.903365 226.127656 
L 54.903365 226.127656 
" style="fill: none; stroke: #86d549; stroke-width: 1.5; stroke-linecap: square"/>
    </g>
    <g id="text_28">
     <!-- spline_9 -->
     <g transform="translate(62.903365 229.627656)scale(0.1 -0.1)">
      <defs>
       <path id="DejaVuSans-39" d="M 703 97 
L 703 672 
Q 941 559 1184 500 
Q 1428 441 1663 441 
Q 2288 441 2617 861 
Q 2947 1281 2994 2138 
Q 2813 1869 2534 1725 
Q 2256 1581 1919 1581 
Q 1219 1581 811 2004 
Q 403 2428 403 3163 
Q 403 3881 828 4315 
Q 1253 4750 1959 4750 
Q 2769 4750 3195 4129 
Q 3622 3509 3622 2328 
Q 3622 1225 3098 567 
Q 2575 -91 1691 -91 
Q 1453 -91 1209 -44 
Q 966 3 703 97 
z
M 1959 2075 
Q 2384 2075 2632 2365 
Q 2881 2656 2881 3163 
Q 2881 3666 2632 3958 
Q 2384 4250 1959 4250 
Q 1534 4250 1286 3958 
Q 1038 3666 1038 3163 
Q 1038 2656 1286 2365 
Q 1534 2075 1959 2075 
z
" transform="scale(0.015625)"/>
      </defs>
      <use xlink:href="#DejaVuSans-73"/>
      <use xlink:href="#DejaVuSans-70" x="52.099609"/>
      <use xlink:href="#DejaVuSans-6c" x="115.576172"/>
      <use xlink:href="#DejaVuSans-69" x="143.359375"/>
      <use xlink:href="#DejaVuSans-6e" x="171.142578"/>
      <use xlink:href="#DejaVuSans-65" x="234.521484"/>
      <use xlink:href="#DejaVuSans-5f" x="296.044922"/>
      <use xlink:href="#DejaVuSans-39" x="346.044922"/>
     </g>
    </g>
    <g id="line2d_39">
     <path d="M 34.903365 241.083906 
L 44.903365 241.083906 
L 54.903365 241.083906 
" style="fill: none; stroke: #c2df23; stroke-width: 1.5; stroke-linecap: square"/>
    </g>
    <g id="text_29">
     <!-- spline_10 -->
     <g transform="translate(62.903365 244.583906)scale(0.1 -0.1)">
      <use xlink:href="#DejaVuSans-73"/>
      <use xlink:href="#DejaVuSans-70" x="52.099609"/>
      <use xlink:href="#DejaVuSans-6c" x="115.576172"/>
      <use xlink:href="#DejaVuSans-69" x="143.359375"/>
      <use xlink:href="#DejaVuSans-6e" x="171.142578"/>
      <use xlink:href="#DejaVuSans-65" x="234.521484"/>
      <use xlink:href="#DejaVuSans-5f" x="296.044922"/>
      <use xlink:href="#DejaVuSans-31" x="346.044922"/>
      <use xlink:href="#DejaVuSans-30" x="409.667969"/>
     </g>
    </g>
    <g id="line2d_40">
     <path d="M 34.903365 256.040156 
L 44.903365 256.040156 
L 54.903365 256.040156 
" style="fill: none; stroke: #fde725; stroke-width: 1.5; stroke-linecap: square"/>
    </g>
    <g id="text_30">
     <!-- spline_11 -->
     <g transform="translate(62.903365 259.540156)scale(0.1 -0.1)">
      <use xlink:href="#DejaVuSans-73"/>
      <use xlink:href="#DejaVuSans-70" x="52.099609"/>
      <use xlink:href="#DejaVuSans-6c" x="115.576172"/>
      <use xlink:href="#DejaVuSans-69" x="143.359375"/>
      <use xlink:href="#DejaVuSans-6e" x="171.142578"/>
      <use xlink:href="#DejaVuSans-65" x="234.521484"/>
      <use xlink:href="#DejaVuSans-5f" x="296.044922"/>
      <use xlink:href="#DejaVuSans-31" x="346.044922"/>
      <use xlink:href="#DejaVuSans-31" x="409.667969"/>
     </g>
    </g>
   </g>
  </g>
 </g>
 <defs>
  <clipPath id="pc5e115ecbd">
   <rect x="25.903365" y="22.677427" width="547.096395" height="303.966083"/>
  </clipPath>
 </defs>
</svg>
