<?xml version="1.0" encoding="utf-8" standalone="no"?>
<!DOCTYPE svg PUBLIC "-//W3C//DTD SVG 1.1//EN"
  "http://www.w3.org/Graphics/SVG/1.1/DTD/svg11.dtd">
<svg xmlns:xlink="http://www.w3.org/1999/xlink" width="576pt" height="288pt" viewBox="0 0 576 288" xmlns="http://www.w3.org/2000/svg" version="1.1">
 <metadata>
  <rdf:RDF xmlns:dc="http://purl.org/dc/elements/1.1/" xmlns:cc="http://creativecommons.org/ns#" xmlns:rdf="http://www.w3.org/1999/02/22-rdf-syntax-ns#">
   <cc:Work>
    <dc:type rdf:resource="http://purl.org/dc/dcmitype/StillImage"/>
    <dc:date>2022-07-12T15:41:36.030914</dc:date>
    <dc:format>image/svg+xml</dc:format>
    <dc:creator>
     <cc:Agent>
      <dc:title>Matplotlib v3.5.2, https://matplotlib.org/</dc:title>
     </cc:Agent>
    </dc:creator>
   </cc:Work>
  </rdf:RDF>
 </metadata>
 <defs>
  <style type="text/css">*{stroke-linejoin: round; stroke-linecap: butt}</style>
 </defs>
 <g id="figure_1">
  <g id="patch_1">
   <path d="M 0 288 
L 576 288 
L 576 0 
L 0 0 
L 0 288 
z
" style="fill: none"/>
  </g>
  <g id="axes_1">
   <g id="patch_2">
    <path d="M 35.45024 268.321635 
L 572.99976 268.321635 
L 572.99976 3.00024 
L 35.45024 3.00024 
z
" style="fill: #ffffff"/>
   </g>
   <g id="patch_3">
    <path d="M 59.884309 268.321635 
L 76.173688 268.321635 
L 76.173688 15.634592 
L 59.884309 15.634592 
z
" clip-path="url(#pfab879f6b4)" style="fill: #520b92"/>
   </g>
   <g id="patch_4">
    <path d="M 76.173688 268.321635 
L 92.463068 268.321635 
L 92.463068 260.714029 
L 76.173688 260.714029 
z
" clip-path="url(#pfab879f6b4)" style="fill: #520b92"/>
   </g>
   <g id="patch_5">
    <path d="M 92.463068 268.321635 
L 108.752447 268.321635 
L 108.752447 190.200519 
L 92.463068 190.200519 
z
" clip-path="url(#pfab879f6b4)" style="fill: #520b92"/>
   </g>
   <g id="patch_6">
    <path d="M 108.752447 268.321635 
L 125.041827 268.321635 
L 125.041827 195.844872 
L 108.752447 195.844872 
z
" clip-path="url(#pfab879f6b4)" style="fill: #520b92"/>
   </g>
   <g id="patch_7">
    <path d="M 125.041827 268.321635 
L 141.331206 268.321635 
L 141.331206 208.278809 
L 125.041827 208.278809 
z
" clip-path="url(#pfab879f6b4)" style="fill: #520b92"/>
   </g>
   <g id="patch_8">
    <path d="M 141.331206 268.321635 
L 157.620585 268.321635 
L 157.620585 220.221932 
L 141.331206 220.221932 
z
" clip-path="url(#pfab879f6b4)" style="fill: #520b92"/>
   </g>
   <g id="patch_9">
    <path d="M 157.620585 268.321635 
L 173.909965 268.321635 
L 173.909965 228.074945 
L 157.620585 228.074945 
z
" clip-path="url(#pfab879f6b4)" style="fill: #520b92"/>
   </g>
   <g id="patch_10">
    <path d="M 173.909965 268.321635 
L 190.199344 268.321635 
L 190.199344 238.668332 
L 173.909965 238.668332 
z
" clip-path="url(#pfab879f6b4)" style="fill: #520b92"/>
   </g>
   <g id="patch_11">
    <path d="M 190.199344 268.321635 
L 206.488724 268.321635 
L 206.488724 241.899519 
L 190.199344 241.899519 
z
" clip-path="url(#pfab879f6b4)" style="fill: #520b92"/>
   </g>
   <g id="patch_12">
    <path d="M 206.488724 268.321635 
L 222.778103 268.321635 
L 222.778103 244.558091 
L 206.488724 244.558091 
z
" clip-path="url(#pfab879f6b4)" style="fill: #520b92"/>
   </g>
   <g id="patch_13">
    <path d="M 222.778103 268.321635 
L 239.067482 268.321635 
L 239.067482 251.429478 
L 222.778103 251.429478 
z
" clip-path="url(#pfab879f6b4)" style="fill: #520b92"/>
   </g>
   <g id="patch_14">
    <path d="M 239.067482 268.321635 
L 255.356862 268.321635 
L 255.356862 258.219061 
L 239.067482 258.219061 
z
" clip-path="url(#pfab879f6b4)" style="fill: #520b92"/>
   </g>
   <g id="patch_15">
    <path d="M 255.356862 268.321635 
L 271.646241 268.321635 
L 271.646241 261.450249 
L 255.356862 261.450249 
z
" clip-path="url(#pfab879f6b4)" style="fill: #520b92"/>
   </g>
   <g id="patch_16">
    <path d="M 271.646241 268.321635 
L 287.935621 268.321635 
L 287.935621 260.345919 
L 271.646241 260.345919 
z
" clip-path="url(#pfab879f6b4)" style="fill: #520b92"/>
   </g>
   <g id="patch_17">
    <path d="M 287.935621 268.321635 
L 304.225 268.321635 
L 304.225 260.223216 
L 287.935621 260.223216 
z
" clip-path="url(#pfab879f6b4)" style="fill: #520b92"/>
   </g>
   <g id="patch_18">
    <path d="M 304.225 268.321635 
L 320.514379 268.321635 
L 320.514379 260.673128 
L 304.225 260.673128 
z
" clip-path="url(#pfab879f6b4)" style="fill: #520b92"/>
   </g>
   <g id="patch_19">
    <path d="M 320.514379 268.321635 
L 336.803759 268.321635 
L 336.803759 262.145568 
L 320.514379 262.145568 
z
" clip-path="url(#pfab879f6b4)" style="fill: #520b92"/>
   </g>
   <g id="patch_20">
    <path d="M 336.803759 268.321635 
L 353.093138 268.321635 
L 353.093138 262.881788 
L 336.803759 262.881788 
z
" clip-path="url(#pfab879f6b4)" style="fill: #520b92"/>
   </g>
   <g id="patch_21">
    <path d="M 353.093138 268.321635 
L 369.382518 268.321635 
L 369.382518 265.990272 
L 353.093138 265.990272 
z
" clip-path="url(#pfab879f6b4)" style="fill: #520b92"/>
   </g>
   <g id="patch_22">
    <path d="M 369.382518 268.321635 
L 385.671897 268.321635 
L 385.671897 267.462712 
L 369.382518 267.462712 
z
" clip-path="url(#pfab879f6b4)" style="fill: #520b92"/>
   </g>
   <g id="patch_23">
    <path d="M 385.671897 268.321635 
L 401.961276 268.321635 
L 401.961276 267.912624 
L 385.671897 267.912624 
z
" clip-path="url(#pfab879f6b4)" style="fill: #520b92"/>
   </g>
   <g id="patch_24">
    <path d="M 401.961276 268.321635 
L 418.250656 268.321635 
L 418.250656 268.280734 
L 401.961276 268.280734 
z
" clip-path="url(#pfab879f6b4)" style="fill: #520b92"/>
   </g>
   <g id="patch_25">
    <path d="M 418.250656 268.321635 
L 434.540035 268.321635 
L 434.540035 268.321635 
L 418.250656 268.321635 
z
" clip-path="url(#pfab879f6b4)" style="fill: #520b92"/>
   </g>
   <g id="patch_26">
    <path d="M 434.540035 268.321635 
L 450.829415 268.321635 
L 450.829415 268.280734 
L 434.540035 268.280734 
z
" clip-path="url(#pfab879f6b4)" style="fill: #520b92"/>
   </g>
   <g id="patch_27">
    <path d="M 450.829415 268.321635 
L 467.118794 268.321635 
L 467.118794 268.280734 
L 450.829415 268.280734 
z
" clip-path="url(#pfab879f6b4)" style="fill: #520b92"/>
   </g>
   <g id="patch_28">
    <path d="M 467.118794 268.321635 
L 483.408173 268.321635 
L 483.408173 268.280734 
L 467.118794 268.280734 
z
" clip-path="url(#pfab879f6b4)" style="fill: #520b92"/>
   </g>
   <g id="patch_29">
    <path d="M 483.408173 268.321635 
L 499.697553 268.321635 
L 499.697553 268.280734 
L 483.408173 268.280734 
z
" clip-path="url(#pfab879f6b4)" style="fill: #520b92"/>
   </g>
   <g id="patch_30">
    <path d="M 499.697553 268.321635 
L 515.986932 268.321635 
L 515.986932 268.280734 
L 499.697553 268.280734 
z
" clip-path="url(#pfab879f6b4)" style="fill: #520b92"/>
   </g>
   <g id="patch_31">
    <path d="M 515.986932 268.321635 
L 532.276312 268.321635 
L 532.276312 268.280734 
L 515.986932 268.280734 
z
" clip-path="url(#pfab879f6b4)" style="fill: #520b92"/>
   </g>
   <g id="patch_32">
    <path d="M 532.276312 268.321635 
L 548.565691 268.321635 
L 548.565691 268.280734 
L 532.276312 268.280734 
z
" clip-path="url(#pfab879f6b4)" style="fill: #520b92"/>
   </g>
   <g id="matplotlib.axis_1">
    <g id="xtick_1">
     <g id="line2d_1">
      <defs>
       <path id="m0e1d6c4319" d="M 0 0 
L 0 3.5 
" style="stroke: #000000; stroke-width: 0.8"/>
      </defs>
      <g>
       <use xlink:href="#m0e1d6c4319" x="59.884309" y="268.321635" style="stroke: #000000; stroke-width: 0.8"/>
      </g>
     </g>
     <g id="text_1">
      <!-- 0 -->
      <g transform="translate(56.703059 282.920073)scale(0.1 -0.1)">
       <defs>
        <path id="DejaVuSans-30" d="M 2034 4250 
Q 1547 4250 1301 3770 
Q 1056 3291 1056 2328 
Q 1056 1369 1301 889 
Q 1547 409 2034 409 
Q 2525 409 2770 889 
Q 3016 1369 3016 2328 
Q 3016 3291 2770 3770 
Q 2525 4250 2034 4250 
z
M 2034 4750 
Q 2819 4750 3233 4129 
Q 3647 3509 3647 2328 
Q 3647 1150 3233 529 
Q 2819 -91 2034 -91 
Q 1250 -91 836 529 
Q 422 1150 422 2328 
Q 422 3509 836 4129 
Q 1250 4750 2034 4750 
z
" transform="scale(0.015625)"/>
       </defs>
       <use xlink:href="#DejaVuSans-30"/>
      </g>
     </g>
    </g>
    <g id="xtick_2">
     <g id="line2d_2">
      <g>
       <use xlink:href="#m0e1d6c4319" x="122.057513" y="268.321635" style="stroke: #000000; stroke-width: 0.8"/>
      </g>
     </g>
     <g id="text_2">
      <!-- 1000 -->
      <g transform="translate(109.332513 282.920073)scale(0.1 -0.1)">
       <defs>
        <path id="DejaVuSans-31" d="M 794 531 
L 1825 531 
L 1825 4091 
L 703 3866 
L 703 4441 
L 1819 4666 
L 2450 4666 
L 2450 531 
L 3481 531 
L 3481 0 
L 794 0 
L 794 531 
z
" transform="scale(0.015625)"/>
       </defs>
       <use xlink:href="#DejaVuSans-31"/>
       <use xlink:href="#DejaVuSans-30" x="63.623047"/>
       <use xlink:href="#DejaVuSans-30" x="127.246094"/>
       <use xlink:href="#DejaVuSans-30" x="190.869141"/>
      </g>
     </g>
    </g>
    <g id="xtick_3">
     <g id="line2d_3">
      <g>
       <use xlink:href="#m0e1d6c4319" x="184.230717" y="268.321635" style="stroke: #000000; stroke-width: 0.8"/>
      </g>
     </g>
     <g id="text_3">
      <!-- 2000 -->
      <g transform="translate(171.505717 282.920073)scale(0.1 -0.1)">
       <defs>
        <path id="DejaVuSans-32" d="M 1228 531 
L 3431 531 
L 3431 0 
L 469 0 
L 469 531 
Q 828 903 1448 1529 
Q 2069 2156 2228 2338 
Q 2531 2678 2651 2914 
Q 2772 3150 2772 3378 
Q 2772 3750 2511 3984 
Q 2250 4219 1831 4219 
Q 1534 4219 1204 4116 
Q 875 4013 500 3803 
L 500 4441 
Q 881 4594 1212 4672 
Q 1544 4750 1819 4750 
Q 2544 4750 2975 4387 
Q 3406 4025 3406 3419 
Q 3406 3131 3298 2873 
Q 3191 2616 2906 2266 
Q 2828 2175 2409 1742 
Q 1991 1309 1228 531 
z
" transform="scale(0.015625)"/>
       </defs>
       <use xlink:href="#DejaVuSans-32"/>
       <use xlink:href="#DejaVuSans-30" x="63.623047"/>
       <use xlink:href="#DejaVuSans-30" x="127.246094"/>
       <use xlink:href="#DejaVuSans-30" x="190.869141"/>
      </g>
     </g>
    </g>
    <g id="xtick_4">
     <g id="line2d_4">
      <g>
       <use xlink:href="#m0e1d6c4319" x="246.40392" y="268.321635" style="stroke: #000000; stroke-width: 0.8"/>
      </g>
     </g>
     <g id="text_4">
      <!-- 3000 -->
      <g transform="translate(233.67892 282.920073)scale(0.1 -0.1)">
       <defs>
        <path id="DejaVuSans-33" d="M 2597 2516 
Q 3050 2419 3304 2112 
Q 3559 1806 3559 1356 
Q 3559 666 3084 287 
Q 2609 -91 1734 -91 
Q 1441 -91 1130 -33 
Q 819 25 488 141 
L 488 750 
Q 750 597 1062 519 
Q 1375 441 1716 441 
Q 2309 441 2620 675 
Q 2931 909 2931 1356 
Q 2931 1769 2642 2001 
Q 2353 2234 1838 2234 
L 1294 2234 
L 1294 2753 
L 1863 2753 
Q 2328 2753 2575 2939 
Q 2822 3125 2822 3475 
Q 2822 3834 2567 4026 
Q 2313 4219 1838 4219 
Q 1578 4219 1281 4162 
Q 984 4106 628 3988 
L 628 4550 
Q 988 4650 1302 4700 
Q 1616 4750 1894 4750 
Q 2613 4750 3031 4423 
Q 3450 4097 3450 3541 
Q 3450 3153 3228 2886 
Q 3006 2619 2597 2516 
z
" transform="scale(0.015625)"/>
       </defs>
       <use xlink:href="#DejaVuSans-33"/>
       <use xlink:href="#DejaVuSans-30" x="63.623047"/>
       <use xlink:href="#DejaVuSans-30" x="127.246094"/>
       <use xlink:href="#DejaVuSans-30" x="190.869141"/>
      </g>
     </g>
    </g>
    <g id="xtick_5">
     <g id="line2d_5">
      <g>
       <use xlink:href="#m0e1d6c4319" x="308.577124" y="268.321635" style="stroke: #000000; stroke-width: 0.8"/>
      </g>
     </g>
     <g id="text_5">
      <!-- 4000 -->
      <g transform="translate(295.852124 282.920073)scale(0.1 -0.1)">
       <defs>
        <path id="DejaVuSans-34" d="M 2419 4116 
L 825 1625 
L 2419 1625 
L 2419 4116 
z
M 2253 4666 
L 3047 4666 
L 3047 1625 
L 3713 1625 
L 3713 1100 
L 3047 1100 
L 3047 0 
L 2419 0 
L 2419 1100 
L 313 1100 
L 313 1709 
L 2253 4666 
z
" transform="scale(0.015625)"/>
       </defs>
       <use xlink:href="#DejaVuSans-34"/>
       <use xlink:href="#DejaVuSans-30" x="63.623047"/>
       <use xlink:href="#DejaVuSans-30" x="127.246094"/>
       <use xlink:href="#DejaVuSans-30" x="190.869141"/>
      </g>
     </g>
    </g>
    <g id="xtick_6">
     <g id="line2d_6">
      <g>
       <use xlink:href="#m0e1d6c4319" x="370.750328" y="268.321635" style="stroke: #000000; stroke-width: 0.8"/>
      </g>
     </g>
     <g id="text_6">
      <!-- 5000 -->
      <g transform="translate(358.025328 282.920073)scale(0.1 -0.1)">
       <defs>
        <path id="DejaVuSans-35" d="M 691 4666 
L 3169 4666 
L 3169 4134 
L 1269 4134 
L 1269 2991 
Q 1406 3038 1543 3061 
Q 1681 3084 1819 3084 
Q 2600 3084 3056 2656 
Q 3513 2228 3513 1497 
Q 3513 744 3044 326 
Q 2575 -91 1722 -91 
Q 1428 -91 1123 -41 
Q 819 9 494 109 
L 494 744 
Q 775 591 1075 516 
Q 1375 441 1709 441 
Q 2250 441 2565 725 
Q 2881 1009 2881 1497 
Q 2881 1984 2565 2268 
Q 2250 2553 1709 2553 
Q 1456 2553 1204 2497 
Q 953 2441 691 2322 
L 691 4666 
z
" transform="scale(0.015625)"/>
       </defs>
       <use xlink:href="#DejaVuSans-35"/>
       <use xlink:href="#DejaVuSans-30" x="63.623047"/>
       <use xlink:href="#DejaVuSans-30" x="127.246094"/>
       <use xlink:href="#DejaVuSans-30" x="190.869141"/>
      </g>
     </g>
    </g>
    <g id="xtick_7">
     <g id="line2d_7">
      <g>
       <use xlink:href="#m0e1d6c4319" x="432.923532" y="268.321635" style="stroke: #000000; stroke-width: 0.8"/>
      </g>
     </g>
     <g id="text_7">
      <!-- 6000 -->
      <g transform="translate(420.198532 282.920073)scale(0.1 -0.1)">
       <defs>
        <path id="DejaVuSans-36" d="M 2113 2584 
Q 1688 2584 1439 2293 
Q 1191 2003 1191 1497 
Q 1191 994 1439 701 
Q 1688 409 2113 409 
Q 2538 409 2786 701 
Q 3034 994 3034 1497 
Q 3034 2003 2786 2293 
Q 2538 2584 2113 2584 
z
M 3366 4563 
L 3366 3988 
Q 3128 4100 2886 4159 
Q 2644 4219 2406 4219 
Q 1781 4219 1451 3797 
Q 1122 3375 1075 2522 
Q 1259 2794 1537 2939 
Q 1816 3084 2150 3084 
Q 2853 3084 3261 2657 
Q 3669 2231 3669 1497 
Q 3669 778 3244 343 
Q 2819 -91 2113 -91 
Q 1303 -91 875 529 
Q 447 1150 447 2328 
Q 447 3434 972 4092 
Q 1497 4750 2381 4750 
Q 2619 4750 2861 4703 
Q 3103 4656 3366 4563 
z
" transform="scale(0.015625)"/>
       </defs>
       <use xlink:href="#DejaVuSans-36"/>
       <use xlink:href="#DejaVuSans-30" x="63.623047"/>
       <use xlink:href="#DejaVuSans-30" x="127.246094"/>
       <use xlink:href="#DejaVuSans-30" x="190.869141"/>
      </g>
     </g>
    </g>
    <g id="xtick_8">
     <g id="line2d_8">
      <g>
       <use xlink:href="#m0e1d6c4319" x="495.096736" y="268.321635" style="stroke: #000000; stroke-width: 0.8"/>
      </g>
     </g>
     <g id="text_8">
      <!-- 7000 -->
      <g transform="translate(482.371736 282.920073)scale(0.1 -0.1)">
       <defs>
        <path id="DejaVuSans-37" d="M 525 4666 
L 3525 4666 
L 3525 4397 
L 1831 0 
L 1172 0 
L 2766 4134 
L 525 4134 
L 525 4666 
z
" transform="scale(0.015625)"/>
       </defs>
       <use xlink:href="#DejaVuSans-37"/>
       <use xlink:href="#DejaVuSans-30" x="63.623047"/>
       <use xlink:href="#DejaVuSans-30" x="127.246094"/>
       <use xlink:href="#DejaVuSans-30" x="190.869141"/>
      </g>
     </g>
    </g>
    <g id="xtick_9">
     <g id="line2d_9">
      <g>
       <use xlink:href="#m0e1d6c4319" x="557.269939" y="268.321635" style="stroke: #000000; stroke-width: 0.8"/>
      </g>
     </g>
     <g id="text_9">
      <!-- 8000 -->
      <g transform="translate(544.544939 282.920073)scale(0.1 -0.1)">
       <defs>
        <path id="DejaVuSans-38" d="M 2034 2216 
Q 1584 2216 1326 1975 
Q 1069 1734 1069 1313 
Q 1069 891 1326 650 
Q 1584 409 2034 409 
Q 2484 409 2743 651 
Q 3003 894 3003 1313 
Q 3003 1734 2745 1975 
Q 2488 2216 2034 2216 
z
M 1403 2484 
Q 997 2584 770 2862 
Q 544 3141 544 3541 
Q 544 4100 942 4425 
Q 1341 4750 2034 4750 
Q 2731 4750 3128 4425 
Q 3525 4100 3525 3541 
Q 3525 3141 3298 2862 
Q 3072 2584 2669 2484 
Q 3125 2378 3379 2068 
Q 3634 1759 3634 1313 
Q 3634 634 3220 271 
Q 2806 -91 2034 -91 
Q 1263 -91 848 271 
Q 434 634 434 1313 
Q 434 1759 690 2068 
Q 947 2378 1403 2484 
z
M 1172 3481 
Q 1172 3119 1398 2916 
Q 1625 2713 2034 2713 
Q 2441 2713 2670 2916 
Q 2900 3119 2900 3481 
Q 2900 3844 2670 4047 
Q 2441 4250 2034 4250 
Q 1625 4250 1398 4047 
Q 1172 3844 1172 3481 
z
" transform="scale(0.015625)"/>
       </defs>
       <use xlink:href="#DejaVuSans-38"/>
       <use xlink:href="#DejaVuSans-30" x="63.623047"/>
       <use xlink:href="#DejaVuSans-30" x="127.246094"/>
       <use xlink:href="#DejaVuSans-30" x="190.869141"/>
      </g>
     </g>
    </g>
   </g>
   <g id="matplotlib.axis_2">
    <g id="ytick_1">
     <g id="line2d_10">
      <defs>
       <path id="mccd7ff0c6f" d="M 0 0 
L -3.5 0 
" style="stroke: #000000; stroke-width: 0.8"/>
      </defs>
      <g>
       <use xlink:href="#mccd7ff0c6f" x="35.45024" y="268.321635" style="stroke: #000000; stroke-width: 0.8"/>
      </g>
     </g>
     <g id="text_10">
      <!-- 0 -->
      <g transform="translate(22.08774 272.120854)scale(0.1 -0.1)">
       <use xlink:href="#DejaVuSans-30"/>
      </g>
     </g>
    </g>
    <g id="ytick_2">
     <g id="line2d_11">
      <g>
       <use xlink:href="#mccd7ff0c6f" x="35.45024" y="227.420527" style="stroke: #000000; stroke-width: 0.8"/>
      </g>
     </g>
     <g id="text_11">
      <!-- 1000 -->
      <g transform="translate(3.00024 231.219746)scale(0.1 -0.1)">
       <use xlink:href="#DejaVuSans-31"/>
       <use xlink:href="#DejaVuSans-30" x="63.623047"/>
       <use xlink:href="#DejaVuSans-30" x="127.246094"/>
       <use xlink:href="#DejaVuSans-30" x="190.869141"/>
      </g>
     </g>
    </g>
    <g id="ytick_3">
     <g id="line2d_12">
      <g>
       <use xlink:href="#mccd7ff0c6f" x="35.45024" y="186.51942" style="stroke: #000000; stroke-width: 0.8"/>
      </g>
     </g>
     <g id="text_12">
      <!-- 2000 -->
      <g transform="translate(3.00024 190.318639)scale(0.1 -0.1)">
       <use xlink:href="#DejaVuSans-32"/>
       <use xlink:href="#DejaVuSans-30" x="63.623047"/>
       <use xlink:href="#DejaVuSans-30" x="127.246094"/>
       <use xlink:href="#DejaVuSans-30" x="190.869141"/>
      </g>
     </g>
    </g>
    <g id="ytick_4">
     <g id="line2d_13">
      <g>
       <use xlink:href="#mccd7ff0c6f" x="35.45024" y="145.618312" style="stroke: #000000; stroke-width: 0.8"/>
      </g>
     </g>
     <g id="text_13">
      <!-- 3000 -->
      <g transform="translate(3.00024 149.417531)scale(0.1 -0.1)">
       <use xlink:href="#DejaVuSans-33"/>
       <use xlink:href="#DejaVuSans-30" x="63.623047"/>
       <use xlink:href="#DejaVuSans-30" x="127.246094"/>
       <use xlink:href="#DejaVuSans-30" x="190.869141"/>
      </g>
     </g>
    </g>
    <g id="ytick_5">
     <g id="line2d_14">
      <g>
       <use xlink:href="#mccd7ff0c6f" x="35.45024" y="104.717205" style="stroke: #000000; stroke-width: 0.8"/>
      </g>
     </g>
     <g id="text_14">
      <!-- 4000 -->
      <g transform="translate(3.00024 108.516423)scale(0.1 -0.1)">
       <use xlink:href="#DejaVuSans-34"/>
       <use xlink:href="#DejaVuSans-30" x="63.623047"/>
       <use xlink:href="#DejaVuSans-30" x="127.246094"/>
       <use xlink:href="#DejaVuSans-30" x="190.869141"/>
      </g>
     </g>
    </g>
    <g id="ytick_6">
     <g id="line2d_15">
      <g>
       <use xlink:href="#mccd7ff0c6f" x="35.45024" y="63.816097" style="stroke: #000000; stroke-width: 0.8"/>
      </g>
     </g>
     <g id="text_15">
      <!-- 5000 -->
      <g transform="translate(3.00024 67.615316)scale(0.1 -0.1)">
       <use xlink:href="#DejaVuSans-35"/>
       <use xlink:href="#DejaVuSans-30" x="63.623047"/>
       <use xlink:href="#DejaVuSans-30" x="127.246094"/>
       <use xlink:href="#DejaVuSans-30" x="190.869141"/>
      </g>
     </g>
    </g>
    <g id="ytick_7">
     <g id="line2d_16">
      <g>
       <use xlink:href="#mccd7ff0c6f" x="35.45024" y="22.914989" style="stroke: #000000; stroke-width: 0.8"/>
      </g>
     </g>
     <g id="text_16">
      <!-- 6000 -->
      <g transform="translate(3.00024 26.714208)scale(0.1 -0.1)">
       <use xlink:href="#DejaVuSans-36"/>
       <use xlink:href="#DejaVuSans-30" x="63.623047"/>
       <use xlink:href="#DejaVuSans-30" x="127.246094"/>
       <use xlink:href="#DejaVuSans-30" x="190.869141"/>
      </g>
     </g>
    </g>
   </g>
   <g id="patch_33">
    <path d="M 35.45024 268.321635 
L 35.45024 3.00024 
" style="fill: none; stroke: #000000; stroke-width: 0.8; stroke-linejoin: miter; stroke-linecap: square"/>
   </g>
   <g id="patch_34">
    <path d="M 572.99976 268.321635 
L 572.99976 3.00024 
" style="fill: none; stroke: #000000; stroke-width: 0.8; stroke-linejoin: miter; stroke-linecap: square"/>
   </g>
   <g id="patch_35">
    <path d="M 35.45024 268.321635 
L 572.99976 268.321635 
" style="fill: none; stroke: #000000; stroke-width: 0.8; stroke-linejoin: miter; stroke-linecap: square"/>
   </g>
   <g id="patch_36">
    <path d="M 35.45024 3.00024 
L 572.99976 3.00024 
" style="fill: none; stroke: #000000; stroke-width: 0.8; stroke-linejoin: miter; stroke-linecap: square"/>
   </g>
  </g>
 </g>
 <defs>
  <clipPath id="pfab879f6b4">
   <rect x="35.45024" y="3.00024" width="537.54952" height="265.321395"/>
  </clipPath>
 </defs>
</svg>
